<svg width="488" height="489" viewBox="0 0 488 489" fill="none" xmlns="http://www.w3.org/2000/svg">
<path d="M344.259 24.6993C347.736 22.4204 349.943 20.1635 351.075 18H353.284C347.022 33.1963 300.483 45 244 45C187.517 45 140.978 33.1963 134.716 18H136.925C138.057 20.1635 140.264 22.4204 143.741 24.6993C149.062 28.1878 156.895 31.4062 166.753 34.1395C186.44 39.5982 213.752 43 244 43C274.248 43 301.56 39.5982 321.247 34.1395C331.105 31.4062 338.938 28.1878 344.259 24.6993Z" fill="#D6A62F"/>
<path d="M351.075 473C349.943 470.837 347.736 468.58 344.259 466.301C338.938 462.812 331.105 459.594 321.247 456.861C301.56 451.402 274.248 448 244 448C213.752 448 186.44 451.402 166.753 456.861C156.895 459.594 149.062 462.812 143.741 466.301C140.264 468.58 138.057 470.837 136.925 473H134.716C140.978 457.804 187.517 446 244 446C300.483 446 347.022 457.804 353.284 473H351.075Z" fill="#D6A62F"/>
<path d="M14 38.9486C14.4953 38.9827 14.9955 39 15.5 39C26.8218 39 36 30.2696 36 19.5C36 18.9953 35.9798 18.4951 35.9403 18H33.9326C33.9772 18.4948 34 18.9951 34 19.5C34 29.0719 25.8127 37 15.5 37C14.9947 37 14.4944 36.981 14 36.9436V38.9486Z" fill="#D6A62F"/>
<path d="M453.06 18C453.02 18.4951 453 18.9953 453 19.5C453 30.2696 462.178 39 473.5 39C473.667 39 473.834 38.9981 474 38.9943V36.9938C473.834 36.9979 473.667 37 473.5 37C463.187 37 455 29.0719 455 19.5C455 18.9951 455.023 18.4948 455.067 18H453.06Z" fill="#D6A62F"/>
<path d="M474 451.006C473.834 451.002 473.667 451 473.5 451C462.178 451 453 459.73 453 470.5C453 471.347 453.057 472.181 453.167 473H455.188C455.064 472.182 455 471.348 455 470.5C455 460.928 463.187 453 473.5 453C473.667 453 473.834 453.002 474 453.006V451.006Z" fill="#D6A62F"/>
<path d="M35.8331 473C35.9432 472.181 36 471.347 36 470.5C36 459.73 26.8218 451 15.5 451C14.9955 451 14.4953 451.017 14 451.051V453.056C14.4944 453.019 14.9947 453 15.5 453C25.8127 453 34 460.928 34 470.5C34 471.348 33.9358 472.182 33.8116 473H35.8331Z" fill="#D6A62F"/>
<path d="M26.7836 17.9208C26.9258 17.1354 27 16.3264 27 15.5C27 8.04416 20.9558 2 13.5 2C6.04416 2 0 8.04416 0 15.5C0 22.6439 5.54892 28.4917 12.5718 28.9686C9.2703 27.3354 7 23.9328 7 20C7 14.4772 11.4772 10 17 10C21.8099 10 25.8267 13.3959 26.7836 17.9208Z" fill="#D6A62F"/>
<path d="M460.216 17.9208C460.074 17.1354 460 16.3264 460 15.5C460 8.04416 466.044 2 473.5 2C480.956 2 487 8.04416 487 15.5C487 22.6439 481.451 28.4917 474.428 28.9686C477.73 27.3354 480 23.9328 480 20C480 14.4772 475.523 10 470 10C465.19 10 461.173 13.3959 460.216 17.9208Z" fill="#D6A62F"/>
<path d="M27.7836 472.048C27.9258 472.833 28 473.642 28 474.469C28 481.924 21.9558 487.969 14.5 487.969C7.04416 487.969 1 481.924 1 474.469C1 467.325 6.54892 461.477 13.5718 461C10.2703 462.633 8 466.036 8 469.969C8 475.491 12.4772 479.969 18 479.969C22.8099 479.969 26.8267 476.573 27.7836 472.048Z" fill="#D6A62F"/>
<path d="M461.216 472.048C461.074 472.833 461 473.642 461 474.469C461 481.924 467.044 487.969 474.5 487.969C481.956 487.969 488 481.924 488 474.469C488 467.325 482.451 461.477 475.428 461C478.73 462.633 481 466.036 481 469.969C481 475.491 476.523 479.969 471 479.969C466.19 479.969 462.173 476.573 461.216 472.048Z" fill="#D6A62F"/>
<path d="M222.032 10.5564C220.967 9.58934 219.552 9 218 9C214.686 9 212 11.6863 212 15C212 18.3137 214.686 21 218 21C218.939 21 219.828 20.7843 220.619 20.3997C219.073 22.0028 216.903 23 214.5 23C209.806 23 206 19.1944 206 14.5C206 9.80558 209.806 6 214.5 6C217.771 6 220.611 7.84775 222.032 10.5564Z" fill="#D6A62F"/>
<path d="M266 10.5564C267.065 9.58934 268.48 9 270.032 9C273.346 9 276.032 11.6863 276.032 15C276.032 18.3137 273.346 21 270.032 21C269.093 21 268.204 20.7843 267.413 20.3997C268.959 22.0028 271.129 23 273.532 23C278.226 23 282.032 19.1944 282.032 14.5C282.032 9.80558 278.226 6 273.532 6C270.261 6 267.421 7.84775 266 10.5564Z" fill="#D6A62F"/>
<path d="M222.032 469.556C220.967 468.589 219.552 468 218 468C214.686 468 212 470.686 212 474C212 477.314 214.686 480 218 480C218.939 480 219.828 479.784 220.619 479.4C219.073 481.003 216.903 482 214.5 482C209.806 482 206 478.194 206 473.5C206 468.806 209.806 465 214.5 465C217.771 465 220.611 466.848 222.032 469.556Z" fill="#D6A62F"/>
<path d="M266 469.556C267.065 468.589 268.48 468 270.032 468C273.346 468 276.032 470.686 276.032 474C276.032 477.314 273.346 480 270.032 480C269.093 480 268.204 479.784 267.413 479.4C268.959 481.003 271.129 482 273.532 482C278.226 482 282.032 478.194 282.032 473.5C282.032 468.806 278.226 465 273.532 465C270.261 465 267.421 466.848 266 469.556Z" fill="#D6A62F"/>
<path d="M201.995 7.27762C201.998 7.18552 202 7.09297 202 7C202 3.13401 198.866 0 195 0C191.134 0 188 3.13401 188 7C188 10.866 191.134 14 195 14C198.013 14 200.582 12.0962 201.568 9.42578C200.847 10.9476 199.296 12 197.5 12C195.015 12 193 9.98528 193 7.5C193 5.01472 195.015 3 197.5 3C199.911 3 201.879 4.89568 201.995 7.27762Z" fill="#D6A62F"/>
<path d="M286.005 7.27762C286.002 7.18552 286 7.09297 286 7C286 3.13401 289.134 0 293 0C296.866 0 300 3.13401 300 7C300 10.866 296.866 14 293 14C289.987 14 287.418 12.0962 286.432 9.42578C287.153 10.9476 288.704 12 290.5 12C292.985 12 295 9.98528 295 7.5C295 5.01472 292.985 3 290.5 3C288.089 3 286.121 4.89568 286.005 7.27762Z" fill="#D6A62F"/>
<path d="M201.995 482.278C201.998 482.186 202 482.093 202 482C202 478.134 198.866 475 195 475C191.134 475 188 478.134 188 482C188 485.866 191.134 489 195 489C198.013 489 200.582 487.096 201.568 484.426C200.847 485.948 199.296 487 197.5 487C195.015 487 193 484.985 193 482.5C193 480.015 195.015 478 197.5 478C199.911 478 201.879 479.896 201.995 482.278Z" fill="#D6A62F"/>
<path d="M286.005 482.278C286.002 482.186 286 482.093 286 482C286 478.134 289.134 475 293 475C296.866 475 300 478.134 300 482C300 485.866 296.866 489 293 489C289.987 489 287.418 487.096 286.432 484.426C287.153 485.948 288.704 487 290.5 487C292.985 487 295 484.985 295 482.5C295 480.015 292.985 478 290.5 478C288.089 478 286.121 479.896 286.005 482.278Z" fill="#D6A62F"/>
<path d="M246 19.5C246 20.8807 244.881 22 243.5 22C242.119 22 241 20.8807 241 19.5C241 18.1193 242.119 17 243.5 17C244.881 17 246 18.1193 246 19.5Z" fill="#D6A62F"/>
<path d="M255.507 7.34247L248.805 17.7187L245.131 14.0444L255.507 7.34247Z" fill="#D6A62F"/>
<path d="M231.121 7.34247L237.823 17.7187L241.498 14.0444L231.121 7.34247Z" fill="#D6A62F"/>
<path d="M255.507 31.7279L248.805 21.3517L245.131 25.0259L255.507 31.7279Z" fill="#D6A62F"/>
<path d="M231.121 31.7279L237.823 21.3517L241.498 25.0259L231.121 31.7279Z" fill="#D6A62F"/>
<path d="M245 27.5C245 28.3284 244.328 29 243.5 29C242.672 29 242 28.3284 242 27.5C242 26.6716 242.672 26 243.5 26C244.328 26 245 26.6716 245 27.5Z" fill="#D6A62F"/>
<path d="M245 11.5C245 12.3284 244.328 13 243.5 13C242.672 13 242 12.3284 242 11.5C242 10.6716 242.672 10 243.5 10C244.328 10 245 10.6716 245 11.5Z" fill="#D6A62F"/>
<path d="M253 19.5C253 20.3284 252.328 21 251.5 21C250.672 21 250 20.3284 250 19.5C250 18.6716 250.672 18 251.5 18C252.328 18 253 18.6716 253 19.5Z" fill="#D6A62F"/>
<path d="M237 19.5C237 20.3284 236.328 21 235.5 21C234.672 21 234 20.3284 234 19.5C234 18.6716 234.672 18 235.5 18C236.328 18 237 18.6716 237 19.5Z" fill="#D6A62F"/>
<path d="M256.926 19.5352C256.926 20.0875 256.478 20.5352 255.926 20.5352C255.374 20.5352 254.926 20.0875 254.926 19.5352C254.926 18.9829 255.374 18.5352 255.926 18.5352C256.478 18.5352 256.926 18.9829 256.926 19.5352Z" fill="#D6A62F"/>
<path d="M260 19.5C260 19.7761 259.776 20 259.5 20C259.224 20 259 19.7761 259 19.5C259 19.2239 259.224 19 259.5 19C259.776 19 260 19.2239 260 19.5Z" fill="#D6A62F"/>
<path d="M243.5 32.8995C242.948 32.8995 242.5 32.4517 242.5 31.8995C242.5 31.3472 242.948 30.8995 243.5 30.8995C244.052 30.8995 244.5 31.3472 244.5 31.8995C244.5 32.4517 244.052 32.8995 243.5 32.8995Z" fill="#D6A62F"/>
<path d="M243.535 35.9736C243.259 35.9736 243.035 35.7498 243.035 35.4736C243.035 35.1975 243.259 34.9736 243.535 34.9736C243.811 34.9736 244.035 35.1975 244.035 35.4736C244.035 35.7498 243.811 35.9736 243.535 35.9736Z" fill="#D6A62F"/>
<path d="M243.5 5.97362C242.948 5.97362 242.5 6.42133 242.5 6.97362C242.5 7.5259 242.948 7.97362 243.5 7.97362C244.052 7.97362 244.5 7.5259 244.5 6.97362C244.5 6.42133 244.052 5.97362 243.5 5.97362Z" fill="#D6A62F"/>
<path d="M243.535 2.89946C243.259 2.89946 243.035 3.12332 243.035 3.39946C243.035 3.6756 243.259 3.89946 243.535 3.89946C243.811 3.89946 244.035 3.6756 244.035 3.39946C244.035 3.12332 243.811 2.89946 243.535 2.89946Z" fill="#D6A62F"/>
<path d="M230 19.5352C230 20.0875 230.448 20.5352 231 20.5352C231.552 20.5352 232 20.0875 232 19.5352C232 18.9829 231.552 18.5352 231 18.5352C230.448 18.5352 230 18.9829 230 19.5352Z" fill="#D6A62F"/>
<path d="M226.926 19.5C226.926 19.7761 227.15 20 227.426 20C227.702 20 227.926 19.7761 227.926 19.5C227.926 19.2239 227.702 19 227.426 19C227.15 19 226.926 19.2239 226.926 19.5Z" fill="#D6A62F"/>
<path d="M246 470.5C246 471.881 244.881 473 243.5 473C242.119 473 241 471.881 241 470.5C241 469.119 242.119 468 243.5 468C244.881 468 246 469.119 246 470.5Z" fill="#D6A62F"/>
<path d="M255.507 458.342L248.805 468.719L245.131 465.044L255.507 458.342Z" fill="#D6A62F"/>
<path d="M231.121 458.342L237.823 468.719L241.498 465.044L231.121 458.342Z" fill="#D6A62F"/>
<path d="M255.507 482.728L248.805 472.352L245.131 476.026L255.507 482.728Z" fill="#D6A62F"/>
<path d="M231.121 482.728L237.823 472.352L241.498 476.026L231.121 482.728Z" fill="#D6A62F"/>
<path d="M245 478.5C245 479.328 244.328 480 243.5 480C242.672 480 242 479.328 242 478.5C242 477.672 242.672 477 243.5 477C244.328 477 245 477.672 245 478.5Z" fill="#D6A62F"/>
<path d="M245 462.5C245 463.328 244.328 464 243.5 464C242.672 464 242 463.328 242 462.5C242 461.672 242.672 461 243.5 461C244.328 461 245 461.672 245 462.5Z" fill="#D6A62F"/>
<path d="M253 470.5C253 471.328 252.328 472 251.5 472C250.672 472 250 471.328 250 470.5C250 469.672 250.672 469 251.5 469C252.328 469 253 469.672 253 470.5Z" fill="#D6A62F"/>
<path d="M237 470.5C237 471.328 236.328 472 235.5 472C234.672 472 234 471.328 234 470.5C234 469.672 234.672 469 235.5 469C236.328 469 237 469.672 237 470.5Z" fill="#D6A62F"/>
<path d="M256.926 470.535C256.926 471.088 256.478 471.535 255.926 471.535C255.374 471.535 254.926 471.088 254.926 470.535C254.926 469.983 255.374 469.535 255.926 469.535C256.478 469.535 256.926 469.983 256.926 470.535Z" fill="#D6A62F"/>
<path d="M260 470.5C260 470.776 259.776 471 259.5 471C259.224 471 259 470.776 259 470.5C259 470.224 259.224 470 259.5 470C259.776 470 260 470.224 260 470.5Z" fill="#D6A62F"/>
<path d="M243.5 483.899C242.948 483.899 242.5 483.452 242.5 482.899C242.5 482.347 242.948 481.899 243.5 481.899C244.052 481.899 244.5 482.347 244.5 482.899C244.5 483.452 244.052 483.899 243.5 483.899Z" fill="#D6A62F"/>
<path d="M243.535 486.974C243.259 486.974 243.035 486.75 243.035 486.474C243.035 486.197 243.259 485.974 243.535 485.974C243.811 485.974 244.035 486.197 244.035 486.474C244.035 486.75 243.811 486.974 243.535 486.974Z" fill="#D6A62F"/>
<path d="M243.5 456.974C242.948 456.974 242.5 457.421 242.5 457.974C242.5 458.526 242.948 458.974 243.5 458.974C244.052 458.974 244.5 458.526 244.5 457.974C244.5 457.421 244.052 456.974 243.5 456.974Z" fill="#D6A62F"/>
<path d="M243.535 453.899C243.259 453.899 243.035 454.123 243.035 454.399C243.035 454.676 243.259 454.899 243.535 454.899C243.811 454.899 244.035 454.676 244.035 454.399C244.035 454.123 243.811 453.899 243.535 453.899Z" fill="#D6A62F"/>
<path d="M230 470.535C230 471.088 230.448 471.535 231 471.535C231.552 471.535 232 471.088 232 470.535C232 469.983 231.552 469.535 231 469.535C230.448 469.535 230 469.983 230 470.535Z" fill="#D6A62F"/>
<path d="M226.926 470.5C226.926 470.776 227.15 471 227.426 471C227.702 471 227.926 470.776 227.926 470.5C227.926 470.224 227.702 470 227.426 470C227.15 470 226.926 470.224 226.926 470.5Z" fill="#D6A62F"/>
<path d="M18.1383 232.919L19.1866 243.889L29.5426 245L19.1866 246.111L18.1383 257.081L17.0899 246.111L6.73395 245L17.0899 243.889L18.1383 232.919Z" fill="#D6A62F"/>
<path d="M23.0905 239.864L19.8219 245.06L23.5384 250.207L18.2111 246.754L13.186 250.279L16.4546 245.083L12.7381 239.936L18.0654 243.389L23.0905 239.864Z" fill="#D6A62F"/>
<path d="M468.138 232.919L469.187 243.889L479.543 245L469.187 246.111L468.138 257.081L467.09 246.111L456.734 245L467.09 243.889L468.138 232.919Z" fill="#D6A62F"/>
<path d="M473.091 239.864L469.822 245.06L473.538 250.207L468.211 246.754L463.186 250.279L466.455 245.083L462.738 239.936L468.065 243.389L473.091 239.864Z" fill="#D6A62F"/>
<path d="M21.4789 17.4847L20.0625 20.612L21.5339 23.7647L18.3812 22.2934L15.2538 23.7097L16.6702 20.5824L15.1989 17.4297L18.3515 18.901L21.4789 17.4847Z" fill="#D6A62F"/>
<path d="M472.479 17.4847L471.063 20.612L472.534 23.7647L469.381 22.2934L466.254 23.7097L467.67 20.5824L466.199 17.4297L469.352 18.901L472.479 17.4847Z" fill="#D6A62F"/>
<path d="M21.4789 467.485L20.0625 470.612L21.5339 473.765L18.3812 472.293L15.2538 473.71L16.6702 470.582L15.1989 467.43L18.3515 468.901L21.4789 467.485Z" fill="#D6A62F"/>
<path d="M472.479 467.485L471.063 470.612L472.534 473.765L469.381 472.293L466.254 473.71L467.67 470.582L466.199 467.43L469.352 468.901L472.479 467.485Z" fill="#D6A62F"/>
<path d="M40.7153 43.027L32.0105 34.9853L32.955 34.0703L40.7153 43.027Z" fill="#D6A62F"/>
<path d="M31.04 47.0414L26.5423 38.3343L27.7485 37.8105L31.04 47.0414Z" fill="#D6A62F"/>
<path d="M45.2251 32.2726L35.732 29.8384L36.1434 28.5893L45.2251 32.2726Z" fill="#D6A62F"/>
<path d="M39.4092 35.5501L34.254 32.6322L35.0248 31.5667L39.4092 35.5501Z" fill="#D6A62F"/>
<path d="M33.3495 41.3773L29.3558 37.0023L30.4194 36.229L33.3495 41.3773Z" fill="#D6A62F"/>
<path d="M20 51.8651L19.3032 40.0348L20.6182 40.0304L20 51.8651Z" fill="#D6A62F"/>
<path d="M48.8562 23.0055L37.0236 23.663V22.3479L48.8562 23.0055Z" fill="#D6A62F"/>
<path d="M447.444 43.027L456.149 34.9853L455.204 34.0703L447.444 43.027Z" fill="#D6A62F"/>
<path d="M457.119 47.0414L461.617 38.3343L460.411 37.8105L457.119 47.0414Z" fill="#D6A62F"/>
<path d="M442.934 32.2726L452.427 29.8384L452.016 28.5893L442.934 32.2726Z" fill="#D6A62F"/>
<path d="M448.75 35.5501L453.905 32.6322L453.135 31.5667L448.75 35.5501Z" fill="#D6A62F"/>
<path d="M454.81 41.3773L458.804 37.0023L457.74 36.229L454.81 41.3773Z" fill="#D6A62F"/>
<path d="M468.159 51.8651L468.856 40.0348L467.541 40.0304L468.159 51.8651Z" fill="#D6A62F"/>
<path d="M439.303 23.0055L451.136 23.663V22.3479L439.303 23.0055Z" fill="#D6A62F"/>
<path d="M40.7153 447.186L32.0105 455.228L32.955 456.143L40.7153 447.186Z" fill="#D6A62F"/>
<path d="M31.04 443.172L26.5423 451.879L27.7485 452.403L31.04 443.172Z" fill="#D6A62F"/>
<path d="M45.2251 457.94L35.732 460.375L36.1434 461.624L45.2251 457.94Z" fill="#D6A62F"/>
<path d="M39.4092 454.663L34.254 457.581L35.0248 458.646L39.4092 454.663Z" fill="#D6A62F"/>
<path d="M33.3495 448.836L29.3558 453.211L30.4194 453.984L33.3495 448.836Z" fill="#D6A62F"/>
<path d="M20 438.348L19.3032 450.178L20.6182 450.183L20 438.348Z" fill="#D6A62F"/>
<path d="M48.8562 467.208L37.0236 466.55V467.865L48.8562 467.208Z" fill="#D6A62F"/>
<path d="M447.444 447.186L456.149 455.228L455.204 456.143L447.444 447.186Z" fill="#D6A62F"/>
<path d="M457.119 443.172L461.617 451.879L460.411 452.403L457.119 443.172Z" fill="#D6A62F"/>
<path d="M442.934 457.94L452.427 460.375L452.016 461.624L442.934 457.94Z" fill="#D6A62F"/>
<path d="M448.75 454.663L453.905 457.581L453.135 458.646L448.75 454.663Z" fill="#D6A62F"/>
<path d="M454.81 448.836L458.804 453.211L457.74 453.984L454.81 448.836Z" fill="#D6A62F"/>
<path d="M468.159 438.348L468.856 450.178L467.541 450.183L468.159 438.348Z" fill="#D6A62F"/>
<path d="M439.303 467.208L451.136 466.55V467.865L439.303 467.208Z" fill="#D6A62F"/>
<path d="M182.014 484.599C182.014 484.878 181.788 485.104 181.509 485.104C181.23 485.104 181.003 484.878 181.003 484.599C181.003 484.32 181.23 484.093 181.509 484.093C181.788 484.093 182.014 484.32 182.014 484.599Z" fill="#D6A62F"/>
<path d="M33.0454 484.599C33.0454 485.468 32.3405 486.173 31.471 486.173C30.6015 486.173 29.8966 485.468 29.8966 484.599C29.8966 483.729 30.6015 483.024 31.471 483.024C32.3405 483.024 33.0454 483.729 33.0454 484.599Z" fill="#D6A62F"/>
<path d="M43.1097 484.599C43.1097 485.468 42.4048 486.173 41.5353 486.173C40.6658 486.173 39.9609 485.468 39.9609 484.599C39.9609 483.729 40.6658 483.024 41.5353 483.024C42.4048 483.024 43.1097 483.729 43.1097 484.599Z" fill="#D6A62F"/>
<path d="M52.9851 484.599C52.9851 485.416 52.3225 486.079 51.5051 486.079C50.6878 486.079 50.0251 485.416 50.0251 484.599C50.0251 483.782 50.6878 483.119 51.5051 483.119C52.3225 483.119 52.9851 483.782 52.9851 484.599Z" fill="#D6A62F"/>
<path d="M63.0132 484.599C63.0132 485.416 62.3506 486.079 61.5332 486.079C60.7158 486.079 60.0532 485.416 60.0532 484.599C60.0532 483.782 60.7158 483.119 61.5332 483.119C62.3506 483.119 63.0132 483.782 63.0132 484.599Z" fill="#D6A62F"/>
<path d="M72.7542 484.599C72.7542 485.379 72.1216 486.012 71.3412 486.012C70.5608 486.012 69.9282 485.379 69.9282 484.599C69.9282 483.818 70.5608 483.186 71.3412 483.186C72.1216 483.186 72.7542 483.818 72.7542 484.599Z" fill="#D6A62F"/>
<path d="M82.8308 484.599C82.8308 485.379 82.1981 486.012 81.4177 486.012C80.6374 486.012 80.0047 485.379 80.0047 484.599C80.0047 483.818 80.6374 483.186 81.4177 483.186C82.1981 483.186 82.8308 483.818 82.8308 484.599Z" fill="#D6A62F"/>
<path d="M92.7851 484.599C92.7851 485.333 92.1901 485.928 91.456 485.928C90.722 485.928 90.1269 485.333 90.1269 484.599C90.1269 483.865 90.722 483.27 91.456 483.27C92.1901 483.27 92.7851 483.865 92.7851 484.599Z" fill="#D6A62F"/>
<path d="M102.639 484.599C102.639 485.292 102.077 485.854 101.384 485.854C100.691 485.854 100.129 485.292 100.129 484.599C100.129 483.906 100.691 483.344 101.384 483.344C102.077 483.344 102.639 483.906 102.639 484.599Z" fill="#D6A62F"/>
<path d="M112.386 484.599C112.386 485.248 111.86 485.774 111.211 485.774C110.562 485.774 110.036 485.248 110.036 484.599C110.036 483.95 110.562 483.424 111.211 483.424C111.86 483.424 112.386 483.95 112.386 484.599Z" fill="#D6A62F"/>
<path d="M122.394 484.599C122.394 485.196 121.91 485.681 121.313 485.681C120.715 485.681 120.231 485.196 120.231 484.599C120.231 484.001 120.715 483.517 121.313 483.517C121.91 483.517 122.394 484.001 122.394 484.599Z" fill="#D6A62F"/>
<path d="M132.394 484.599C132.394 485.173 131.929 485.638 131.355 485.638C130.781 485.638 130.316 485.173 130.316 484.599C130.316 484.025 130.781 483.56 131.355 483.56C131.929 483.56 132.394 484.025 132.394 484.599Z" fill="#D6A62F"/>
<path d="M142.275 484.599C142.275 485.124 141.85 485.549 141.325 485.549C140.8 485.549 140.375 485.124 140.375 484.599C140.375 484.074 140.8 483.649 141.325 483.649C141.85 483.649 142.275 484.074 142.275 484.599Z" fill="#D6A62F"/>
<path d="M152.275 484.599C152.275 485.083 151.883 485.476 151.399 485.476C150.914 485.476 150.522 485.083 150.522 484.599C150.522 484.115 150.914 483.722 151.399 483.722C151.883 483.722 152.275 484.115 152.275 484.599Z" fill="#D6A62F"/>
<path d="M162.177 484.599C162.177 485.029 161.828 485.378 161.398 485.378C160.967 485.378 160.618 485.029 160.618 484.599C160.618 484.168 160.967 483.819 161.398 483.819C161.828 483.819 162.177 484.168 162.177 484.599Z" fill="#D6A62F"/>
<path d="M172.091 484.599C172.091 484.949 171.807 485.234 171.456 485.234C171.106 485.234 170.822 484.949 170.822 484.599C170.822 484.248 171.106 483.964 171.456 483.964C171.807 483.964 172.091 484.248 172.091 484.599Z" fill="#D6A62F"/>
<path d="M305.897 484.599C305.897 484.878 306.123 485.104 306.402 485.104C306.681 485.104 306.908 484.878 306.908 484.599C306.908 484.32 306.681 484.093 306.402 484.093C306.123 484.093 305.897 484.32 305.897 484.599Z" fill="#D6A62F"/>
<path d="M454.866 484.599C454.866 485.468 455.57 486.173 456.44 486.173C457.309 486.173 458.014 485.468 458.014 484.599C458.014 483.729 457.309 483.024 456.44 483.024C455.57 483.024 454.866 483.729 454.866 484.599Z" fill="#D6A62F"/>
<path d="M444.801 484.599C444.801 485.468 445.506 486.173 446.376 486.173C447.245 486.173 447.95 485.468 447.95 484.599C447.95 483.729 447.245 483.024 446.376 483.024C445.506 483.024 444.801 483.729 444.801 484.599Z" fill="#D6A62F"/>
<path d="M434.926 484.599C434.926 485.416 435.588 486.079 436.406 486.079C437.223 486.079 437.886 485.416 437.886 484.599C437.886 483.782 437.223 483.119 436.406 483.119C435.588 483.119 434.926 483.782 434.926 484.599Z" fill="#D6A62F"/>
<path d="M424.898 484.599C424.898 485.416 425.56 486.079 426.378 486.079C427.195 486.079 427.858 485.416 427.858 484.599C427.858 483.782 427.195 483.119 426.378 483.119C425.56 483.119 424.898 483.782 424.898 484.599Z" fill="#D6A62F"/>
<path d="M415.157 484.599C415.157 485.379 415.789 486.012 416.57 486.012C417.35 486.012 417.983 485.379 417.983 484.599C417.983 483.818 417.35 483.186 416.57 483.186C415.789 483.186 415.157 483.818 415.157 484.599Z" fill="#D6A62F"/>
<path d="M405.08 484.599C405.08 485.379 405.713 486.012 406.493 486.012C407.274 486.012 407.906 485.379 407.906 484.599C407.906 483.818 407.274 483.186 406.493 483.186C405.713 483.186 405.08 483.818 405.08 484.599Z" fill="#D6A62F"/>
<path d="M395.126 484.599C395.126 485.333 395.721 485.928 396.455 485.928C397.189 485.928 397.784 485.333 397.784 484.599C397.784 483.865 397.189 483.27 396.455 483.27C395.721 483.27 395.126 483.865 395.126 484.599Z" fill="#D6A62F"/>
<path d="M385.271 484.599C385.271 485.292 385.833 485.854 386.527 485.854C387.22 485.854 387.782 485.292 387.782 484.599C387.782 483.906 387.22 483.344 386.527 483.344C385.833 483.344 385.271 483.906 385.271 484.599Z" fill="#D6A62F"/>
<path d="M375.525 484.599C375.525 485.248 376.051 485.774 376.7 485.774C377.349 485.774 377.874 485.248 377.874 484.599C377.874 483.95 377.349 483.424 376.7 483.424C376.051 483.424 375.525 483.95 375.525 484.599Z" fill="#D6A62F"/>
<path d="M365.517 484.599C365.517 485.196 366.001 485.681 366.598 485.681C367.196 485.681 367.68 485.196 367.68 484.599C367.68 484.001 367.196 483.517 366.598 483.517C366.001 483.517 365.517 484.001 365.517 484.599Z" fill="#D6A62F"/>
<path d="M355.517 484.599C355.517 485.173 355.982 485.638 356.556 485.638C357.13 485.638 357.595 485.173 357.595 484.599C357.595 484.025 357.13 483.56 356.556 483.56C355.982 483.56 355.517 484.025 355.517 484.599Z" fill="#D6A62F"/>
<path d="M345.635 484.599C345.635 485.124 346.061 485.549 346.586 485.549C347.11 485.549 347.536 485.124 347.536 484.599C347.536 484.074 347.11 483.649 346.586 483.649C346.061 483.649 345.635 484.074 345.635 484.599Z" fill="#D6A62F"/>
<path d="M335.635 484.599C335.635 485.083 336.028 485.476 336.512 485.476C336.997 485.476 337.389 485.083 337.389 484.599C337.389 484.115 336.997 483.722 336.512 483.722C336.028 483.722 335.635 484.115 335.635 484.599Z" fill="#D6A62F"/>
<path d="M325.734 484.599C325.734 485.029 326.083 485.378 326.513 485.378C326.944 485.378 327.293 485.029 327.293 484.599C327.293 484.168 326.944 483.819 326.513 483.819C326.083 483.819 325.734 484.168 325.734 484.599Z" fill="#D6A62F"/>
<path d="M315.82 484.599C315.82 484.949 316.104 485.234 316.455 485.234C316.805 485.234 317.089 484.949 317.089 484.599C317.089 484.248 316.805 483.964 316.455 483.964C316.104 483.964 315.82 484.248 315.82 484.599Z" fill="#D6A62F"/>
<path d="M182.014 5.5989C182.014 5.87805 181.788 6.10435 181.509 6.10435C181.23 6.10435 181.003 5.87805 181.003 5.5989C181.003 5.31974 181.23 5.09344 181.509 5.09344C181.788 5.09344 182.014 5.31974 182.014 5.5989Z" fill="#D6A62F"/>
<path d="M33.0454 5.59888C33.0454 6.4684 32.3405 7.17328 31.471 7.17328C30.6015 7.17328 29.8966 6.4684 29.8966 5.59888C29.8966 4.72936 30.6015 4.02448 31.471 4.02448C32.3405 4.02448 33.0454 4.72936 33.0454 5.59888Z" fill="#D6A62F"/>
<path d="M43.1097 5.59888C43.1097 6.4684 42.4048 7.17328 41.5353 7.17328C40.6658 7.17328 39.9609 6.4684 39.9609 5.59888C39.9609 4.72936 40.6658 4.02448 41.5353 4.02448C42.4048 4.02448 43.1097 4.72936 43.1097 5.59888Z" fill="#D6A62F"/>
<path d="M52.9851 5.59888C52.9851 6.41625 52.3225 7.07886 51.5051 7.07886C50.6878 7.07886 50.0251 6.41625 50.0251 5.59888C50.0251 4.78151 50.6878 4.1189 51.5051 4.1189C52.3225 4.1189 52.9851 4.78151 52.9851 5.59888Z" fill="#D6A62F"/>
<path d="M63.0132 5.59888C63.0132 6.41625 62.3506 7.07886 61.5332 7.07886C60.7158 7.07886 60.0532 6.41625 60.0532 5.59888C60.0532 4.78151 60.7158 4.1189 61.5332 4.1189C62.3506 4.1189 63.0132 4.78151 63.0132 5.59888Z" fill="#D6A62F"/>
<path d="M72.7542 5.59888C72.7542 6.37927 72.1216 7.0119 71.3412 7.0119C70.5608 7.0119 69.9282 6.37927 69.9282 5.59888C69.9282 4.81848 70.5608 4.18585 71.3412 4.18585C72.1216 4.18585 72.7542 4.81848 72.7542 5.59888Z" fill="#D6A62F"/>
<path d="M82.8308 5.59888C82.8308 6.37927 82.1981 7.0119 81.4177 7.0119C80.6374 7.0119 80.0047 6.37927 80.0047 5.59888C80.0047 4.81848 80.6374 4.18585 81.4177 4.18585C82.1981 4.18585 82.8308 4.81848 82.8308 5.59888Z" fill="#D6A62F"/>
<path d="M92.7851 5.59888C92.7851 6.33292 92.1901 6.92798 91.456 6.92798C90.722 6.92798 90.1269 6.33292 90.1269 5.59888C90.1269 4.86483 90.722 4.26978 91.456 4.26978C92.1901 4.26978 92.7851 4.86483 92.7851 5.59888Z" fill="#D6A62F"/>
<path d="M102.639 5.59889C102.639 6.29218 102.077 6.85421 101.384 6.85421C100.691 6.85421 100.129 6.29218 100.129 5.59889C100.129 4.90559 100.691 4.34357 101.384 4.34357C102.077 4.34357 102.639 4.90559 102.639 5.59889Z" fill="#D6A62F"/>
<path d="M112.386 5.59886C112.386 6.24765 111.86 6.77359 111.211 6.77359C110.562 6.77359 110.036 6.24765 110.036 5.59886C110.036 4.95008 110.562 4.42413 111.211 4.42413C111.86 4.42413 112.386 4.95008 112.386 5.59886Z" fill="#D6A62F"/>
<path d="M122.394 5.59889C122.394 6.19629 121.91 6.68057 121.313 6.68057C120.715 6.68057 120.231 6.19629 120.231 5.59889C120.231 5.0015 120.715 4.51721 121.313 4.51721C121.91 4.51721 122.394 5.0015 122.394 5.59889Z" fill="#D6A62F"/>
<path d="M132.394 5.59891C132.394 6.17282 131.929 6.63806 131.355 6.63806C130.781 6.63806 130.316 6.17282 130.316 5.59891C130.316 5.025 130.781 4.55975 131.355 4.55975C131.929 4.55975 132.394 5.025 132.394 5.59891Z" fill="#D6A62F"/>
<path d="M142.275 5.59891C142.275 6.1237 141.85 6.54913 141.325 6.54913C140.8 6.54913 140.375 6.1237 140.375 5.59891C140.375 5.07411 140.8 4.64868 141.325 4.64868C141.85 4.64868 142.275 5.07411 142.275 5.59891Z" fill="#D6A62F"/>
<path d="M152.275 5.59891C152.275 6.08318 151.883 6.47577 151.399 6.47577C150.914 6.47577 150.522 6.08318 150.522 5.59891C150.522 5.11463 150.914 4.72205 151.399 4.72205C151.883 4.72205 152.275 5.11463 152.275 5.59891Z" fill="#D6A62F"/>
<path d="M162.177 5.59889C162.177 6.02936 161.828 6.37833 161.398 6.37833C160.967 6.37833 160.618 6.02936 160.618 5.59889C160.618 5.16842 160.967 4.81946 161.398 4.81946C161.828 4.81946 162.177 5.16842 162.177 5.59889Z" fill="#D6A62F"/>
<path d="M172.091 5.59888C172.091 5.94941 171.807 6.23357 171.456 6.23357C171.106 6.23357 170.822 5.94941 170.822 5.59888C170.822 5.24836 171.106 4.9642 171.456 4.9642C171.807 4.9642 172.091 5.24836 172.091 5.59888Z" fill="#D6A62F"/>
<path d="M305.897 5.5989C305.897 5.87805 306.123 6.10435 306.402 6.10435C306.681 6.10435 306.908 5.87805 306.908 5.5989C306.908 5.31974 306.681 5.09344 306.402 5.09344C306.123 5.09344 305.897 5.31974 305.897 5.5989Z" fill="#D6A62F"/>
<path d="M454.866 5.59888C454.866 6.4684 455.57 7.17328 456.44 7.17328C457.309 7.17328 458.014 6.4684 458.014 5.59888C458.014 4.72936 457.309 4.02448 456.44 4.02448C455.57 4.02448 454.866 4.72936 454.866 5.59888Z" fill="#D6A62F"/>
<path d="M444.801 5.59888C444.801 6.4684 445.506 7.17328 446.376 7.17328C447.245 7.17328 447.95 6.4684 447.95 5.59888C447.95 4.72936 447.245 4.02448 446.376 4.02448C445.506 4.02448 444.801 4.72936 444.801 5.59888Z" fill="#D6A62F"/>
<path d="M434.926 5.59888C434.926 6.41625 435.588 7.07886 436.406 7.07886C437.223 7.07886 437.886 6.41625 437.886 5.59888C437.886 4.78151 437.223 4.1189 436.406 4.1189C435.588 4.1189 434.926 4.78151 434.926 5.59888Z" fill="#D6A62F"/>
<path d="M424.898 5.59888C424.898 6.41625 425.56 7.07886 426.378 7.07886C427.195 7.07886 427.858 6.41625 427.858 5.59888C427.858 4.78151 427.195 4.1189 426.378 4.1189C425.56 4.1189 424.898 4.78151 424.898 5.59888Z" fill="#D6A62F"/>
<path d="M415.157 5.59888C415.157 6.37927 415.789 7.0119 416.57 7.0119C417.35 7.0119 417.983 6.37927 417.983 5.59888C417.983 4.81848 417.35 4.18585 416.57 4.18585C415.789 4.18585 415.157 4.81848 415.157 5.59888Z" fill="#D6A62F"/>
<path d="M405.08 5.59888C405.08 6.37927 405.713 7.0119 406.493 7.0119C407.274 7.0119 407.906 6.37927 407.906 5.59888C407.906 4.81848 407.274 4.18585 406.493 4.18585C405.713 4.18585 405.08 4.81848 405.08 5.59888Z" fill="#D6A62F"/>
<path d="M395.126 5.59888C395.126 6.33292 395.721 6.92798 396.455 6.92798C397.189 6.92798 397.784 6.33292 397.784 5.59888C397.784 4.86483 397.189 4.26978 396.455 4.26978C395.721 4.26978 395.126 4.86483 395.126 5.59888Z" fill="#D6A62F"/>
<path d="M385.271 5.59889C385.271 6.29218 385.833 6.85421 386.527 6.85421C387.22 6.85421 387.782 6.29218 387.782 5.59889C387.782 4.90559 387.22 4.34357 386.527 4.34357C385.833 4.34357 385.271 4.90559 385.271 5.59889Z" fill="#D6A62F"/>
<path d="M375.525 5.59886C375.525 6.24765 376.051 6.77359 376.7 6.77359C377.349 6.77359 377.874 6.24765 377.874 5.59886C377.874 4.95008 377.349 4.42413 376.7 4.42413C376.051 4.42413 375.525 4.95008 375.525 5.59886Z" fill="#D6A62F"/>
<path d="M365.517 5.59889C365.517 6.19629 366.001 6.68057 366.598 6.68057C367.196 6.68057 367.68 6.19629 367.68 5.59889C367.68 5.0015 367.196 4.51721 366.598 4.51721C366.001 4.51721 365.517 5.0015 365.517 5.59889Z" fill="#D6A62F"/>
<path d="M355.517 5.59891C355.517 6.17282 355.982 6.63806 356.556 6.63806C357.13 6.63806 357.595 6.17282 357.595 5.59891C357.595 5.025 357.13 4.55975 356.556 4.55975C355.982 4.55975 355.517 5.025 355.517 5.59891Z" fill="#D6A62F"/>
<path d="M345.635 5.59891C345.635 6.1237 346.061 6.54913 346.586 6.54913C347.11 6.54913 347.536 6.1237 347.536 5.59891C347.536 5.07411 347.11 4.64868 346.586 4.64868C346.061 4.64868 345.635 5.07411 345.635 5.59891Z" fill="#D6A62F"/>
<path d="M335.635 5.59891C335.635 6.08318 336.028 6.47577 336.512 6.47577C336.997 6.47577 337.389 6.08318 337.389 5.59891C337.389 5.11463 336.997 4.72205 336.512 4.72205C336.028 4.72205 335.635 5.11463 335.635 5.59891Z" fill="#D6A62F"/>
<path d="M325.734 5.59889C325.734 6.02936 326.083 6.37833 326.513 6.37833C326.944 6.37833 327.293 6.02936 327.293 5.59889C327.293 5.16842 326.944 4.81946 326.513 4.81946C326.083 4.81946 325.734 5.16842 325.734 5.59889Z" fill="#D6A62F"/>
<path d="M315.82 5.59888C315.82 5.94941 316.104 6.23357 316.455 6.23357C316.805 6.23357 317.089 5.94941 317.089 5.59888C317.089 5.24836 316.805 4.9642 316.455 4.9642C316.104 4.9642 315.82 5.24836 315.82 5.59888Z" fill="#D6A62F"/>
<path d="M5.73459 457.545C5.73459 458.415 5.02971 459.119 4.16019 459.119C3.29067 459.119 2.58579 458.415 2.58579 457.545C2.58579 456.675 3.29067 455.971 4.16019 455.971C5.02971 455.971 5.73459 456.675 5.73459 457.545Z" fill="#D6A62F"/>
<path d="M5.73459 446.602C5.73459 447.471 5.02971 448.176 4.16019 448.176C3.29067 448.176 2.58579 447.471 2.58579 446.602C2.58579 445.732 3.29067 445.027 4.16019 445.027C5.02971 445.027 5.73459 445.732 5.73459 446.602Z" fill="#D6A62F"/>
<path d="M5.6472 435.746C5.6472 436.567 4.98144 437.233 4.16019 437.233C3.33893 437.233 2.67317 436.567 2.67317 435.746C2.67317 434.925 3.33893 434.259 4.16019 434.259C4.98144 434.259 5.6472 434.925 5.6472 435.746Z" fill="#D6A62F"/>
<path d="M5.6472 424.978C5.6472 425.799 4.98144 426.465 4.16019 426.465C3.33893 426.465 2.67317 425.799 2.67317 424.978C2.67317 424.157 3.33893 423.491 4.16019 423.491C4.98144 423.491 5.6472 424.157 5.6472 424.978Z" fill="#D6A62F"/>
<path d="M5.55358 414.303C5.55358 415.073 4.92974 415.697 4.16019 415.697C3.39064 415.697 2.7668 415.073 2.7668 414.303C2.7668 413.534 3.39064 412.91 4.16019 412.91C4.92974 412.91 5.55358 413.534 5.55358 414.303Z" fill="#D6A62F"/>
<path d="M5.55358 403.722C5.55358 404.492 4.92974 405.116 4.16019 405.116C3.39064 405.116 2.7668 404.492 2.7668 403.722C2.7668 402.953 3.39064 402.329 4.16019 402.329C4.92974 402.329 5.55358 402.953 5.55358 403.722Z" fill="#D6A62F"/>
<path d="M5.45349 393.241C5.45349 393.956 4.87446 394.535 4.16019 394.535C3.44592 394.535 2.86688 393.956 2.86688 393.241C2.86688 392.527 3.44592 391.948 4.16019 391.948C4.87446 391.948 5.45349 392.527 5.45349 393.241Z" fill="#D6A62F"/>
<path d="M5.45349 382.861C5.45349 383.575 4.87446 384.154 4.16019 384.154C3.44592 384.154 2.86688 383.575 2.86688 382.861C2.86688 382.146 3.44592 381.567 4.16019 381.567C4.87446 381.567 5.45349 382.146 5.45349 382.861Z" fill="#D6A62F"/>
<path d="M5.45349 372.48C5.45349 373.194 4.87446 373.773 4.16019 373.773C3.44592 373.773 2.86688 373.194 2.86688 372.48C2.86688 371.765 3.44592 371.186 4.16019 371.186C4.87446 371.186 5.45349 371.765 5.45349 372.48Z" fill="#D6A62F"/>
<path d="M5.32352 362.229C5.32352 362.871 4.80268 363.392 4.16019 363.392C3.5177 363.392 2.99686 362.871 2.99686 362.229C2.99686 361.586 3.5177 361.066 4.16019 361.066C4.80268 361.066 5.32352 361.586 5.32352 362.229Z" fill="#D6A62F"/>
<path d="M5.32352 352.108C5.32352 352.75 4.80268 353.271 4.16019 353.271C3.5177 353.271 2.99686 352.75 2.99686 352.108C2.99686 351.465 3.5177 350.945 4.16019 350.945C4.80268 350.945 5.32352 351.465 5.32352 352.108Z" fill="#D6A62F"/>
<path d="M5.32352 341.987C5.32352 342.63 4.80268 343.15 4.16019 343.15C3.5177 343.15 2.99686 342.63 2.99686 341.987C2.99686 341.345 3.5177 340.824 4.16019 340.824C4.80268 340.824 5.32352 341.345 5.32352 341.987Z" fill="#D6A62F"/>
<path d="M5.18279 332.007C5.18279 332.572 4.72495 333.03 4.16019 333.03C3.59542 333.03 3.13759 332.572 3.13759 332.007C3.13759 331.442 3.59542 330.984 4.16019 330.984C4.72495 330.984 5.18279 331.442 5.18279 332.007Z" fill="#D6A62F"/>
<path d="M5.11678 322.234C5.11678 322.762 4.6885 323.19 4.16019 323.19C3.63188 323.19 3.2036 322.762 3.2036 322.234C3.2036 321.705 3.63188 321.277 4.16019 321.277C4.6885 321.277 5.11678 321.705 5.11678 322.234Z" fill="#D6A62F"/>
<path d="M5.00946 312.633C5.00946 313.102 4.62923 313.483 4.16019 313.483C3.69115 313.483 3.31091 313.102 3.31091 312.633C3.31091 312.164 3.69115 311.784 4.16019 311.784C4.62923 311.784 5.00946 312.164 5.00946 312.633Z" fill="#D6A62F"/>
<path d="M4.96184 303.188C4.96184 303.631 4.60293 303.99 4.16019 303.99C3.71745 303.99 3.35854 303.631 3.35854 303.188C3.35854 302.746 3.71745 302.387 4.16019 302.387C4.60293 302.387 4.96184 302.746 4.96184 303.188Z" fill="#D6A62F"/>
<path d="M4.89807 293.855C4.89807 294.262 4.56771 294.592 4.16019 294.592C3.75267 294.592 3.4223 294.262 3.4223 293.855C3.4223 293.447 3.75267 293.117 4.16019 293.117C4.56771 293.117 4.89807 293.447 4.89807 293.855Z" fill="#D6A62F"/>
<path d="M4.84673 284.636C4.84673 285.015 4.53935 285.322 4.16019 285.322C3.78102 285.322 3.47365 285.015 3.47365 284.636C3.47365 284.257 3.78102 283.949 4.16019 283.949C4.53935 283.949 4.84673 284.257 4.84673 284.636Z" fill="#D6A62F"/>
<path d="M4.84673 275.469C4.84673 275.848 4.53935 276.155 4.16019 276.155C3.78102 276.155 3.47365 275.848 3.47365 275.469C3.47365 275.089 3.78102 274.782 4.16019 274.782C4.53935 274.782 4.84673 275.089 4.84673 275.469Z" fill="#D6A62F"/>
<path d="M4.72531 266.423C4.72531 266.735 4.4723 266.988 4.16019 266.988C3.84808 266.988 3.59506 266.735 3.59506 266.423C3.59506 266.111 3.84808 265.858 4.16019 265.858C4.4723 265.858 4.72531 266.111 4.72531 266.423Z" fill="#D6A62F"/>
<path d="M4.63109 257.592C4.63109 257.852 4.42026 258.063 4.16019 258.063C3.90012 258.063 3.68929 257.852 3.68929 257.592C3.68929 257.332 3.90012 257.122 4.16019 257.122C4.42026 257.122 4.63109 257.332 4.63109 257.592Z" fill="#D6A62F"/>
<path d="M5.73459 33.6959C5.73459 32.8264 5.02971 32.1215 4.16019 32.1215C3.29067 32.1215 2.58579 32.8264 2.58579 33.6959C2.58579 34.5654 3.29067 35.2703 4.16019 35.2703C5.02971 35.2703 5.73459 34.5654 5.73459 33.6959Z" fill="#D6A62F"/>
<path d="M5.73459 44.6392C5.73459 43.7696 5.02971 43.0648 4.16019 43.0648C3.29067 43.0648 2.58579 43.7696 2.58579 44.6392C2.58579 45.5087 3.29067 46.2136 4.16019 46.2136C5.02971 46.2136 5.73459 45.5087 5.73459 44.6392Z" fill="#D6A62F"/>
<path d="M5.6472 55.4948C5.6472 54.6735 4.98144 54.0078 4.16019 54.0078C3.33893 54.0078 2.67317 54.6735 2.67317 55.4948C2.67317 56.3161 3.33893 56.9818 4.16019 56.9818C4.98144 56.9818 5.6472 56.3161 5.6472 55.4948Z" fill="#D6A62F"/>
<path d="M5.6472 66.263C5.6472 65.4418 4.98144 64.776 4.16019 64.776C3.33893 64.776 2.67317 65.4418 2.67317 66.263C2.67317 67.0843 3.33893 67.7501 4.16019 67.7501C4.98144 67.7501 5.6472 67.0843 5.6472 66.263Z" fill="#D6A62F"/>
<path d="M5.55358 76.9377C5.55358 76.1681 4.92974 75.5443 4.16019 75.5443C3.39064 75.5443 2.7668 76.1681 2.7668 76.9377C2.7668 77.7072 3.39064 78.3311 4.16019 78.3311C4.92974 78.3311 5.55358 77.7072 5.55358 76.9377Z" fill="#D6A62F"/>
<path d="M5.55358 87.5187C5.55358 86.7491 4.92974 86.1253 4.16019 86.1253C3.39064 86.1253 2.7668 86.7491 2.7668 87.5187C2.7668 88.2882 3.39064 88.912 4.16019 88.912C4.92974 88.912 5.55358 88.2882 5.55358 87.5187Z" fill="#D6A62F"/>
<path d="M5.45349 97.9996C5.45349 97.2853 4.87446 96.7063 4.16019 96.7063C3.44592 96.7063 2.86688 97.2853 2.86688 97.9996C2.86688 98.7138 3.44592 99.2929 4.16019 99.2929C4.87446 99.2929 5.45349 98.7138 5.45349 97.9996Z" fill="#D6A62F"/>
<path d="M5.45349 108.38C5.45349 107.666 4.87446 107.087 4.16019 107.087C3.44592 107.087 2.86688 107.666 2.86688 108.38C2.86688 109.095 3.44592 109.674 4.16019 109.674C4.87446 109.674 5.45349 109.095 5.45349 108.38Z" fill="#D6A62F"/>
<path d="M5.45349 118.761C5.45349 118.047 4.87446 117.468 4.16019 117.468C3.44592 117.468 2.86688 118.047 2.86688 118.761C2.86688 119.476 3.44592 120.055 4.16019 120.055C4.87446 120.055 5.45349 119.476 5.45349 118.761Z" fill="#D6A62F"/>
<path d="M5.32352 129.012C5.32352 128.37 4.80268 127.849 4.16019 127.849C3.5177 127.849 2.99686 128.37 2.99686 129.012C2.99686 129.655 3.5177 130.175 4.16019 130.175C4.80268 130.175 5.32352 129.655 5.32352 129.012Z" fill="#D6A62F"/>
<path d="M5.32352 139.133C5.32352 138.49 4.80268 137.97 4.16019 137.97C3.5177 137.97 2.99686 138.49 2.99686 139.133C2.99686 139.775 3.5177 140.296 4.16019 140.296C4.80268 140.296 5.32352 139.775 5.32352 139.133Z" fill="#D6A62F"/>
<path d="M5.32352 149.254C5.32352 148.611 4.80268 148.091 4.16019 148.091C3.5177 148.091 2.99686 148.611 2.99686 149.254C2.99686 149.896 3.5177 150.417 4.16019 150.417C4.80268 150.417 5.32352 149.896 5.32352 149.254Z" fill="#D6A62F"/>
<path d="M5.18279 159.234C5.18279 158.669 4.72495 158.211 4.16019 158.211C3.59542 158.211 3.13759 158.669 3.13759 159.234C3.13759 159.799 3.59542 160.257 4.16019 160.257C4.72495 160.257 5.18279 159.799 5.18279 159.234Z" fill="#D6A62F"/>
<path d="M5.11678 169.007C5.11678 168.479 4.6885 168.051 4.16019 168.051C3.63188 168.051 3.2036 168.479 3.2036 169.007C3.2036 169.536 3.63188 169.964 4.16019 169.964C4.6885 169.964 5.11678 169.536 5.11678 169.007Z" fill="#D6A62F"/>
<path d="M5.00946 178.607C5.00946 178.138 4.62923 177.758 4.16019 177.758C3.69115 177.758 3.31091 178.138 3.31091 178.607C3.31091 179.077 3.69115 179.457 4.16019 179.457C4.62923 179.457 5.00946 179.077 5.00946 178.607Z" fill="#D6A62F"/>
<path d="M4.96184 188.053C4.96184 187.61 4.60293 187.251 4.16019 187.251C3.71745 187.251 3.35854 187.61 3.35854 188.053C3.35854 188.495 3.71745 188.854 4.16019 188.854C4.60293 188.854 4.96184 188.495 4.96184 188.053Z" fill="#D6A62F"/>
<path d="M4.89807 197.386C4.89807 196.979 4.56771 196.648 4.16019 196.648C3.75267 196.648 3.4223 196.979 3.4223 197.386C3.4223 197.794 3.75267 198.124 4.16019 198.124C4.56771 198.124 4.89807 197.794 4.89807 197.386Z" fill="#D6A62F"/>
<path d="M4.84673 206.605C4.84673 206.226 4.53935 205.919 4.16019 205.919C3.78102 205.919 3.47365 206.226 3.47365 206.605C3.47365 206.984 3.78102 207.292 4.16019 207.292C4.53935 207.292 4.84673 206.984 4.84673 206.605Z" fill="#D6A62F"/>
<path d="M4.84673 215.772C4.84673 215.393 4.53935 215.086 4.16019 215.086C3.78102 215.086 3.47365 215.393 3.47365 215.772C3.47365 216.152 3.78102 216.459 4.16019 216.459C4.53935 216.459 4.84673 216.152 4.84673 215.772Z" fill="#D6A62F"/>
<path d="M4.72531 224.818C4.72531 224.506 4.4723 224.253 4.16019 224.253C3.84808 224.253 3.59506 224.506 3.59506 224.818C3.59506 225.13 3.84808 225.383 4.16019 225.383C4.4723 225.383 4.72531 225.13 4.72531 224.818Z" fill="#D6A62F"/>
<path d="M4.63109 233.649C4.63109 233.388 4.42026 233.178 4.16019 233.178C3.90012 233.178 3.68929 233.388 3.68929 233.649C3.68929 233.909 3.90012 234.119 4.16019 234.119C4.42026 234.119 4.63109 233.909 4.63109 233.649Z" fill="#D6A62F"/>
<path d="M485.735 457.545C485.735 458.415 485.03 459.119 484.16 459.119C483.291 459.119 482.586 458.415 482.586 457.545C482.586 456.675 483.291 455.971 484.16 455.971C485.03 455.971 485.735 456.675 485.735 457.545Z" fill="#D6A62F"/>
<path d="M485.735 446.602C485.735 447.471 485.03 448.176 484.16 448.176C483.291 448.176 482.586 447.471 482.586 446.602C482.586 445.732 483.291 445.027 484.16 445.027C485.03 445.027 485.735 445.732 485.735 446.602Z" fill="#D6A62F"/>
<path d="M485.647 435.746C485.647 436.567 484.981 437.233 484.16 437.233C483.339 437.233 482.673 436.567 482.673 435.746C482.673 434.925 483.339 434.259 484.16 434.259C484.981 434.259 485.647 434.925 485.647 435.746Z" fill="#D6A62F"/>
<path d="M485.647 424.978C485.647 425.799 484.981 426.465 484.16 426.465C483.339 426.465 482.673 425.799 482.673 424.978C482.673 424.157 483.339 423.491 484.16 423.491C484.981 423.491 485.647 424.157 485.647 424.978Z" fill="#D6A62F"/>
<path d="M485.554 414.303C485.554 415.073 484.93 415.697 484.16 415.697C483.391 415.697 482.767 415.073 482.767 414.303C482.767 413.534 483.391 412.91 484.16 412.91C484.93 412.91 485.554 413.534 485.554 414.303Z" fill="#D6A62F"/>
<path d="M485.554 403.722C485.554 404.492 484.93 405.116 484.16 405.116C483.391 405.116 482.767 404.492 482.767 403.722C482.767 402.953 483.391 402.329 484.16 402.329C484.93 402.329 485.554 402.953 485.554 403.722Z" fill="#D6A62F"/>
<path d="M485.453 393.241C485.453 393.956 484.874 394.535 484.16 394.535C483.446 394.535 482.867 393.956 482.867 393.241C482.867 392.527 483.446 391.948 484.16 391.948C484.874 391.948 485.453 392.527 485.453 393.241Z" fill="#D6A62F"/>
<path d="M485.453 382.861C485.453 383.575 484.874 384.154 484.16 384.154C483.446 384.154 482.867 383.575 482.867 382.861C482.867 382.146 483.446 381.567 484.16 381.567C484.874 381.567 485.453 382.146 485.453 382.861Z" fill="#D6A62F"/>
<path d="M485.453 372.48C485.453 373.194 484.874 373.773 484.16 373.773C483.446 373.773 482.867 373.194 482.867 372.48C482.867 371.765 483.446 371.186 484.16 371.186C484.874 371.186 485.453 371.765 485.453 372.48Z" fill="#D6A62F"/>
<path d="M485.324 362.229C485.324 362.871 484.803 363.392 484.16 363.392C483.518 363.392 482.997 362.871 482.997 362.229C482.997 361.586 483.518 361.066 484.16 361.066C484.803 361.066 485.324 361.586 485.324 362.229Z" fill="#D6A62F"/>
<path d="M485.324 352.108C485.324 352.75 484.803 353.271 484.16 353.271C483.518 353.271 482.997 352.75 482.997 352.108C482.997 351.465 483.518 350.945 484.16 350.945C484.803 350.945 485.324 351.465 485.324 352.108Z" fill="#D6A62F"/>
<path d="M485.324 341.987C485.324 342.63 484.803 343.15 484.16 343.15C483.518 343.15 482.997 342.63 482.997 341.987C482.997 341.345 483.518 340.824 484.16 340.824C484.803 340.824 485.324 341.345 485.324 341.987Z" fill="#D6A62F"/>
<path d="M485.183 332.007C485.183 332.572 484.725 333.03 484.16 333.03C483.595 333.03 483.138 332.572 483.138 332.007C483.138 331.442 483.595 330.984 484.16 330.984C484.725 330.984 485.183 331.442 485.183 332.007Z" fill="#D6A62F"/>
<path d="M485.117 322.234C485.117 322.762 484.688 323.19 484.16 323.19C483.632 323.19 483.204 322.762 483.204 322.234C483.204 321.705 483.632 321.277 484.16 321.277C484.688 321.277 485.117 321.705 485.117 322.234Z" fill="#D6A62F"/>
<path d="M485.009 312.633C485.009 313.102 484.629 313.483 484.16 313.483C483.691 313.483 483.311 313.102 483.311 312.633C483.311 312.164 483.691 311.784 484.16 311.784C484.629 311.784 485.009 312.164 485.009 312.633Z" fill="#D6A62F"/>
<path d="M484.962 303.188C484.962 303.631 484.603 303.99 484.16 303.99C483.717 303.99 483.359 303.631 483.359 303.188C483.359 302.746 483.717 302.387 484.16 302.387C484.603 302.387 484.962 302.746 484.962 303.188Z" fill="#D6A62F"/>
<path d="M484.898 293.855C484.898 294.262 484.568 294.592 484.16 294.592C483.753 294.592 483.422 294.262 483.422 293.855C483.422 293.447 483.753 293.117 484.16 293.117C484.568 293.117 484.898 293.447 484.898 293.855Z" fill="#D6A62F"/>
<path d="M484.847 284.636C484.847 285.015 484.539 285.322 484.16 285.322C483.781 285.322 483.474 285.015 483.474 284.636C483.474 284.257 483.781 283.949 484.16 283.949C484.539 283.949 484.847 284.257 484.847 284.636Z" fill="#D6A62F"/>
<path d="M484.847 275.469C484.847 275.848 484.539 276.155 484.16 276.155C483.781 276.155 483.474 275.848 483.474 275.469C483.474 275.089 483.781 274.782 484.16 274.782C484.539 274.782 484.847 275.089 484.847 275.469Z" fill="#D6A62F"/>
<path d="M484.725 266.423C484.725 266.735 484.472 266.988 484.16 266.988C483.848 266.988 483.595 266.735 483.595 266.423C483.595 266.111 483.848 265.858 484.16 265.858C484.472 265.858 484.725 266.111 484.725 266.423Z" fill="#D6A62F"/>
<path d="M484.631 257.592C484.631 257.852 484.42 258.063 484.16 258.063C483.9 258.063 483.689 257.852 483.689 257.592C483.689 257.332 483.9 257.122 484.16 257.122C484.42 257.122 484.631 257.332 484.631 257.592Z" fill="#D6A62F"/>
<path d="M485.735 33.6959C485.735 32.8264 485.03 32.1215 484.16 32.1215C483.291 32.1215 482.586 32.8264 482.586 33.6959C482.586 34.5654 483.291 35.2703 484.16 35.2703C485.03 35.2703 485.735 34.5654 485.735 33.6959Z" fill="#D6A62F"/>
<path d="M485.735 44.6392C485.735 43.7696 485.03 43.0648 484.16 43.0648C483.291 43.0648 482.586 43.7696 482.586 44.6392C482.586 45.5087 483.291 46.2136 484.16 46.2136C485.03 46.2136 485.735 45.5087 485.735 44.6392Z" fill="#D6A62F"/>
<path d="M485.647 55.4948C485.647 54.6735 484.981 54.0078 484.16 54.0078C483.339 54.0078 482.673 54.6735 482.673 55.4948C482.673 56.3161 483.339 56.9818 484.16 56.9818C484.981 56.9818 485.647 56.3161 485.647 55.4948Z" fill="#D6A62F"/>
<path d="M485.647 66.263C485.647 65.4418 484.981 64.776 484.16 64.776C483.339 64.776 482.673 65.4418 482.673 66.263C482.673 67.0843 483.339 67.7501 484.16 67.7501C484.981 67.7501 485.647 67.0843 485.647 66.263Z" fill="#D6A62F"/>
<path d="M485.554 76.9377C485.554 76.1681 484.93 75.5443 484.16 75.5443C483.391 75.5443 482.767 76.1681 482.767 76.9377C482.767 77.7072 483.391 78.3311 484.16 78.3311C484.93 78.3311 485.554 77.7072 485.554 76.9377Z" fill="#D6A62F"/>
<path d="M485.554 87.5187C485.554 86.7491 484.93 86.1253 484.16 86.1253C483.391 86.1253 482.767 86.7491 482.767 87.5187C482.767 88.2882 483.391 88.912 484.16 88.912C484.93 88.912 485.554 88.2882 485.554 87.5187Z" fill="#D6A62F"/>
<path d="M485.453 97.9996C485.453 97.2853 484.874 96.7063 484.16 96.7063C483.446 96.7063 482.867 97.2853 482.867 97.9996C482.867 98.7138 483.446 99.2929 484.16 99.2929C484.874 99.2929 485.453 98.7138 485.453 97.9996Z" fill="#D6A62F"/>
<path d="M485.453 108.38C485.453 107.666 484.874 107.087 484.16 107.087C483.446 107.087 482.867 107.666 482.867 108.38C482.867 109.095 483.446 109.674 484.16 109.674C484.874 109.674 485.453 109.095 485.453 108.38Z" fill="#D6A62F"/>
<path d="M485.453 118.761C485.453 118.047 484.874 117.468 484.16 117.468C483.446 117.468 482.867 118.047 482.867 118.761C482.867 119.476 483.446 120.055 484.16 120.055C484.874 120.055 485.453 119.476 485.453 118.761Z" fill="#D6A62F"/>
<path d="M485.324 129.012C485.324 128.37 484.803 127.849 484.16 127.849C483.518 127.849 482.997 128.37 482.997 129.012C482.997 129.655 483.518 130.175 484.16 130.175C484.803 130.175 485.324 129.655 485.324 129.012Z" fill="#D6A62F"/>
<path d="M485.324 139.133C485.324 138.49 484.803 137.97 484.16 137.97C483.518 137.97 482.997 138.49 482.997 139.133C482.997 139.775 483.518 140.296 484.16 140.296C484.803 140.296 485.324 139.775 485.324 139.133Z" fill="#D6A62F"/>
<path d="M485.324 149.254C485.324 148.611 484.803 148.091 484.16 148.091C483.518 148.091 482.997 148.611 482.997 149.254C482.997 149.896 483.518 150.417 484.16 150.417C484.803 150.417 485.324 149.896 485.324 149.254Z" fill="#D6A62F"/>
<path d="M485.183 159.234C485.183 158.669 484.725 158.211 484.16 158.211C483.595 158.211 483.138 158.669 483.138 159.234C483.138 159.799 483.595 160.257 484.16 160.257C484.725 160.257 485.183 159.799 485.183 159.234Z" fill="#D6A62F"/>
<path d="M485.117 169.007C485.117 168.479 484.688 168.051 484.16 168.051C483.632 168.051 483.204 168.479 483.204 169.007C483.204 169.536 483.632 169.964 484.16 169.964C484.688 169.964 485.117 169.536 485.117 169.007Z" fill="#D6A62F"/>
<path d="M485.009 178.607C485.009 178.138 484.629 177.758 484.16 177.758C483.691 177.758 483.311 178.138 483.311 178.607C483.311 179.077 483.691 179.457 484.16 179.457C484.629 179.457 485.009 179.077 485.009 178.607Z" fill="#D6A62F"/>
<path d="M484.962 188.053C484.962 187.61 484.603 187.251 484.16 187.251C483.717 187.251 483.359 187.61 483.359 188.053C483.359 188.495 483.717 188.854 484.16 188.854C484.603 188.854 484.962 188.495 484.962 188.053Z" fill="#D6A62F"/>
<path d="M484.898 197.386C484.898 196.979 484.568 196.648 484.16 196.648C483.753 196.648 483.422 196.979 483.422 197.386C483.422 197.794 483.753 198.124 484.16 198.124C484.568 198.124 484.898 197.794 484.898 197.386Z" fill="#D6A62F"/>
<path d="M484.847 206.605C484.847 206.226 484.539 205.919 484.16 205.919C483.781 205.919 483.474 206.226 483.474 206.605C483.474 206.984 483.781 207.292 484.16 207.292C484.539 207.292 484.847 206.984 484.847 206.605Z" fill="#D6A62F"/>
<path d="M484.847 215.772C484.847 215.393 484.539 215.086 484.16 215.086C483.781 215.086 483.474 215.393 483.474 215.772C483.474 216.152 483.781 216.459 484.16 216.459C484.539 216.459 484.847 216.152 484.847 215.772Z" fill="#D6A62F"/>
<path d="M484.725 224.818C484.725 224.506 484.472 224.253 484.16 224.253C483.848 224.253 483.595 224.506 483.595 224.818C483.595 225.13 483.848 225.383 484.16 225.383C484.472 225.383 484.725 225.13 484.725 224.818Z" fill="#D6A62F"/>
<path d="M484.631 233.649C484.631 233.388 484.42 233.178 484.16 233.178C483.9 233.178 483.689 233.388 483.689 233.649C483.689 233.909 483.9 234.119 484.16 234.119C484.42 234.119 484.631 233.909 484.631 233.649Z" fill="#D6A62F"/>
<path d="M25 268V268.414M25 268.414L25 464M25 268.414L25.2929 268.707M25 268.414L2.08579 245.5M25 464L25 465M25 464H146M2.08579 245.5L1.58579 245M2.08579 245.5L25 222.586M2.08579 245.5L1.58579 246M463 268V268.414M463 268.414V464M463 268.414L462.707 268.707M463 268.414L485.914 245.5M463 464V465M463 464H342M485.914 245.5L486.414 245M485.914 245.5L463 222.586M485.914 245.5L486.414 246M25 223V222.586M25 222.586L25 27M25 222.586L25.2929 222.293M25 27L25 26M25 27H146M463 223V222.586M463 222.586V27M463 222.586L462.707 222.293M463 27V26M463 27H342M473 259V453M15 259L15 453M473 38V232M15 38L15 232M34 19H136M352 19H454M34 472H136M352 472H454" stroke="#D6A62F" stroke-width="2"/>
</svg>
