<svg width="508" height="99" viewBox="0 0 508 99" fill="none" xmlns="http://www.w3.org/2000/svg">
<path d="M457.729 21.4585C417.576 59.7862 342.102 85.6045 255.615 85.6045C165.727 85.6045 87.7354 57.7159 48.9299 16.8801C63.3025 62.8073 149.717 98.1123 254.172 98.1123C355.128 98.1123 439.231 65.1329 457.729 21.4585Z" fill="#D6A62F"/>
<path d="M0.930359 5.15988C2.1532 5.09053 3.38593 5.05534 4.62744 5.05534C24.3026 5.05534 41.765 13.8905 52.7031 27.5392C53.6661 28.6197 54.9769 30.2591 56.4634 32.1183C57.1238 32.9442 57.8188 33.8136 58.5335 34.6965C60.0895 36.6189 61.7441 38.6136 63.3581 40.3992C57.6873 17.6723 33.4303 0.590836 4.36615 0.590836C3.21301 0.590836 2.0675 0.617737 0.930359 0.670792V5.15988Z" fill="#D6A62F"/>
<path d="M507.358 5.15988C506.135 5.09053 504.903 5.05534 503.661 5.05534C483.986 5.05534 466.523 13.8905 455.585 27.5391C454.622 28.6197 453.312 30.2591 451.825 32.1183C451.165 32.9442 450.47 33.8135 449.755 34.6965C448.199 36.6189 446.544 38.6137 444.93 40.3992C450.601 17.6723 474.858 0.590836 503.922 0.590836C505.075 0.590836 506.221 0.617737 507.358 0.670792V5.15988Z" fill="#D6A62F"/>
</svg>
