<svg width="757" height="757" viewBox="0 0 757 757" fill="none" xmlns="http://www.w3.org/2000/svg">
<path d="M683.999 155C695.564 170.782 705.936 187.493 714.982 205H42.0185C51.0641 187.493 61.4361 170.782 73.0013 155H683.999Z" fill="#17E8FE"/>
<path d="M683.999 155C695.564 170.782 705.936 187.493 714.982 205H42.0185C51.0641 187.493 61.4361 170.782 73.0013 155H683.999Z" fill="#EF23DC" fill-opacity="0.1"/>
<path d="M611.251 80C547.052 29.8706 466.264 0 378.5 0C290.736 0 209.948 29.8706 145.749 80H611.251Z" fill="#17E8FE"/>
<path d="M627.008 93H129.992C113.543 107.33 98.3435 123.059 84.5795 140H672.421C658.657 123.059 643.457 107.33 627.008 93Z" fill="#17E8FE"/>
<path d="M726.329 229C733.67 246.056 739.792 263.759 744.588 282H12.4122C17.2076 263.759 23.3302 246.056 30.6706 229H726.329Z" fill="#17E8FE"/>
<path d="M726.329 229C733.67 246.056 739.792 263.759 744.588 282H12.4122C17.2076 263.759 23.3302 246.056 30.6706 229H726.329Z" fill="#EF23DC" fill-opacity="0.2"/>
<path d="M757 378.5C757 382.683 756.932 386.85 756.797 391H0.202515C0.0678711 386.85 0 382.683 0 378.5C0 361.032 1.18335 343.84 3.47424 327H753.526C755.817 343.84 757 361.032 757 378.5Z" fill="#17E8FE"/>
<path d="M757 378.5C757 382.683 756.932 386.85 756.797 391H0.202515C0.0678711 386.85 0 382.683 0 378.5C0 361.032 1.18335 343.84 3.47424 327H753.526C755.817 343.84 757 361.032 757 378.5Z" fill="#EF23DC" fill-opacity="0.4"/>
<path d="M749.67 453C744.902 476.888 737.885 499.965 728.85 522H28.1496C19.1146 499.965 12.098 476.888 7.32983 453H749.67Z" fill="#17E8FE"/>
<path d="M749.67 453C744.902 476.888 737.885 499.965 728.85 522H28.1496C19.1146 499.965 12.098 476.888 7.32983 453H749.67Z" fill="#EF23DC" fill-opacity="0.6"/>
<path d="M82.1673 614C70.3867 599.196 59.692 583.489 50.2039 567H706.796C697.308 583.489 686.613 599.196 674.833 614H82.1673Z" fill="#17E8FE"/>
<path d="M82.1673 614C70.3867 599.196 59.692 583.489 50.2039 567H706.796C697.308 583.489 686.613 599.196 674.833 614H82.1673Z" fill="#EF23DC" fill-opacity="0.7"/>
<path d="M378.5 757C301.817 757 230.46 734.196 170.841 695H586.159C526.54 734.196 455.183 757 378.5 757Z" fill="#17E8FE"/>
<path d="M378.5 757C301.817 757 230.46 734.196 170.841 695H586.159C526.54 734.196 455.183 757 378.5 757Z" fill="#EF23DC"/>
<path d="M102.959 638C117.324 653.247 132.94 667.302 149.643 680H607.357C624.06 667.302 639.676 653.247 654.041 638H102.959Z" fill="#17E8FE"/>
<path d="M102.959 638C117.324 653.247 132.94 667.302 149.643 680H607.357C624.06 667.302 639.676 653.247 654.041 638H102.959Z" fill="#EF23DC" fill-opacity="0.8"/>
</svg>
