<svg width="1155" height="188" viewBox="0 0 1155 188" fill="none" xmlns="http://www.w3.org/2000/svg">
<g clip-path="url(#clip0_5_145)">
<path d="M8.61 134.59C6.3273 134.593 4.13885 135.501 2.52473 137.115C0.910619 138.729 0.00264661 140.917 0 143.2L0 188H17.21V143.2C17.21 140.918 16.3043 138.73 14.6917 137.115C13.0792 135.501 10.8918 134.593 8.61 134.59Z" fill="#7E0FFF"/>
<path opacity="0.4" d="M8.60999 77.92C6.32729 77.9226 4.13884 78.8306 2.52473 80.4447C0.910614 82.0588 0.00264202 84.2473 -4.59142e-06 86.53V114.86C-0.039374 116.015 0.154061 117.166 0.568779 118.244C0.983496 119.322 1.61101 120.306 2.41395 121.137C3.21688 121.968 4.17881 122.628 5.24243 123.08C6.30606 123.531 7.44962 123.763 8.60499 123.763C9.76037 123.763 10.9039 123.531 11.9676 123.08C13.0312 122.628 13.9931 121.968 14.796 121.137C15.599 120.306 16.2265 119.322 16.6412 118.244C17.0559 117.166 17.2494 116.015 17.21 114.86V86.53C17.21 84.2482 16.3042 82.0597 14.6917 80.4453C13.0792 78.8309 10.8918 77.9226 8.60999 77.92Z" fill="#7E0FFF"/>
<path opacity="0.2" d="M8.60999 42.5C6.32729 42.5026 4.13884 43.4106 2.52473 45.0247C0.910614 46.6388 0.00264202 48.8273 -4.59142e-06 51.11V58.19C-0.039374 59.3447 0.154061 60.4955 0.568779 61.5739C0.983496 62.6523 1.61101 63.6362 2.41395 64.4669C3.21688 65.2977 4.17881 65.9584 5.24243 66.4096C6.30606 66.8608 7.44962 67.0934 8.60499 67.0934C9.76037 67.0934 10.9039 66.8608 11.9676 66.4096C13.0312 65.9584 13.9931 65.2977 14.796 64.4669C15.599 63.6362 16.2265 62.6523 16.6412 61.5739C17.0559 60.4955 17.2494 59.3447 17.21 58.19V51.11C17.21 48.8282 16.3042 46.6397 14.6917 45.0253C13.0792 43.4109 10.8918 42.5027 8.60999 42.5Z" fill="#7E0FFF"/>
<path d="M27.89 120.42C25.6125 120.423 23.4286 121.326 21.8153 122.934C20.202 124.542 19.2906 126.723 19.28 129V188H36.5V129C36.4894 126.723 35.578 124.542 33.9647 122.934C32.3514 121.326 30.1675 120.423 27.89 120.42Z" fill="#7E0FFF"/>
<path opacity="0.4" d="M27.89 35.42C25.6117 35.42 23.4262 36.323 21.8124 37.9312C20.1986 39.5394 19.2879 41.7217 19.28 44V100.67C19.28 102.954 20.1871 105.143 21.8018 106.758C23.4165 108.373 25.6065 109.28 27.89 109.28C30.1735 109.28 32.3635 108.373 33.9782 106.758C35.5929 105.143 36.5 102.954 36.5 100.67V44C36.4921 41.7217 35.5814 39.5394 33.9676 37.9312C32.3538 36.323 30.1683 35.42 27.89 35.42Z" fill="#7E0FFF"/>
<path d="M47.17 92.09C44.89 92.0926 42.7041 92.9996 41.0918 94.6118C39.4796 96.224 38.5727 98.41 38.57 100.69V188H55.78V100.69C55.7774 98.4082 54.8691 96.2208 53.2547 94.6083C51.6403 92.9958 49.4518 92.09 47.17 92.09Z" fill="#7E0FFF"/>
<path opacity="0.4" d="M47.17 35.42C44.89 35.4226 42.704 36.3296 41.0918 37.9418C39.4796 39.554 38.5726 41.74 38.57 44.02V72.36C38.5306 73.5147 38.7241 74.6655 39.1388 75.7439C39.5535 76.8223 40.181 77.8062 40.984 78.6369C41.7869 79.4677 42.7488 80.1284 43.8124 80.5796C44.8761 81.0309 46.0196 81.2634 47.175 81.2634C48.3304 81.2634 49.4739 81.0309 50.5376 80.5796C51.6012 80.1284 52.5631 79.4677 53.366 78.6369C54.169 77.8062 54.7965 76.8223 55.2112 75.7439C55.6259 74.6655 55.8194 73.5147 55.78 72.36V44C55.7721 41.7217 54.8614 39.5394 53.2476 37.9312C51.6338 36.323 49.4483 35.42 47.17 35.42Z" fill="#7E0FFF"/>
<path opacity="0.2" d="M47.17 0C44.8882 0.00265015 42.7008 0.910942 41.0883 2.52534C39.4758 4.13974 38.57 6.32822 38.57 8.61V15.69C38.5306 16.8447 38.7241 17.9955 39.1388 19.0739C39.5535 20.1523 40.181 21.1362 40.984 21.9669C41.7869 22.7977 42.7488 23.4584 43.8124 23.9096C44.8761 24.3608 46.0196 24.5934 47.175 24.5934C48.3304 24.5934 49.4739 24.3608 50.5376 23.9096C51.6012 23.4584 52.5631 22.7977 53.366 21.9669C54.169 21.1362 54.7965 20.1523 55.2112 19.0739C55.6259 17.9955 55.8194 16.8447 55.78 15.69V8.61C55.7774 6.3273 54.8694 4.13885 53.2553 2.52473C51.6412 0.910619 49.4527 0.00264661 47.17 0Z" fill="#7E0FFF"/>
<path d="M66.46 120.42C64.1825 120.423 61.9986 121.326 60.3853 122.934C58.772 124.542 57.8606 126.723 57.85 129V188H75.06V129C75.0521 126.723 74.1428 124.543 72.5312 122.935C70.9195 121.327 68.7366 120.423 66.46 120.42Z" fill="#7E0FFF"/>
<path opacity="0.4" d="M66.46 77.92C64.1773 77.9226 61.9889 78.8306 60.3747 80.4447C58.7606 82.0588 57.8526 84.2473 57.85 86.53V100.69C57.8106 101.845 58.0041 102.996 58.4188 104.074C58.8335 105.152 59.461 106.136 60.264 106.967C61.0669 107.798 62.0288 108.458 63.0924 108.91C64.1561 109.361 65.2996 109.593 66.455 109.593C67.6104 109.593 68.7539 109.361 69.8176 108.91C70.8812 108.458 71.8431 107.798 72.6461 106.967C73.449 106.136 74.0765 105.152 74.4912 104.074C74.9059 102.996 75.0994 101.845 75.06 100.69V86.53C75.06 84.2482 74.1543 82.0597 72.5417 80.4453C70.9292 78.8309 68.7418 77.9226 66.46 77.92Z" fill="#7E0FFF"/>
<path d="M85.74 134.59C83.4573 134.593 81.2689 135.501 79.6547 137.115C78.0406 138.729 77.1327 140.917 77.13 143.2V188H94.35V143.2C94.3474 140.917 93.4394 138.729 91.8253 137.115C90.2112 135.501 88.0227 134.593 85.74 134.59Z" fill="#7E0FFF"/>
<path opacity="0.4" d="M85.74 92.09C83.459 92.0926 81.2721 92.9992 79.6583 94.6112C78.0444 96.2231 77.1353 98.409 77.13 100.69V114.86C77.13 117.144 78.0371 119.334 79.6518 120.948C81.2665 122.563 83.4565 123.47 85.74 123.47C88.0235 123.47 90.2135 122.563 91.8282 120.948C93.4429 119.334 94.35 117.144 94.35 114.86V100.69C94.3474 98.4082 93.4391 96.2208 91.8247 94.6083C90.2103 92.9958 88.0218 92.09 85.74 92.09Z" fill="#7E0FFF"/>
<path opacity="0.2" d="M93.69 69.08C93.4805 68.5534 93.2157 68.0506 92.9 67.58C92.5853 67.1107 92.227 66.6721 91.83 66.27C91.4253 65.8759 90.987 65.5178 90.52 65.2C90.0383 64.8884 89.5296 64.6207 89 64.4C88.4909 64.1893 87.9615 64.0318 87.42 63.93C86.3147 63.7051 85.1753 63.7051 84.07 63.93C83.4983 64.0416 82.939 64.209 82.4 64.43C81.9136 64.6489 81.4454 64.9064 81 65.2C80.5342 65.5153 80.099 65.8735 79.7 66.27C79.3001 66.6695 78.9416 67.1084 78.63 67.58C78.3095 68.0245 78.0347 68.5002 77.81 69C77.583 69.5342 77.4121 70.0905 77.3 70.66C77.1871 71.2061 77.1301 71.7623 77.13 72.32C77.1365 74.6014 78.0462 76.7874 79.66 78.4C80.048 78.7677 80.4661 79.1022 80.91 79.4H80.97C81.4228 79.7045 81.9053 79.9625 82.41 80.17C82.927 80.3944 83.4668 80.5621 84.02 80.67C84.5886 80.7918 85.1686 80.8521 85.75 80.85C86.3013 80.8542 86.8513 80.7972 87.39 80.68C87.939 80.6181 88.4791 80.4939 89 80.31C89.5465 80.0904 90.0692 79.8156 90.56 79.49C91.0051 79.1895 91.4263 78.8552 91.82 78.49C93.4256 76.8727 94.3307 74.6889 94.34 72.41C94.3363 71.8294 94.2794 71.2503 94.17 70.68C94.0594 70.1331 93.8987 69.5975 93.69 69.08Z" fill="#7E0FFF"/>
<path d="M105 134.59C102.717 134.593 100.529 135.501 98.9147 137.115C97.3006 138.729 96.3926 140.917 96.39 143.2V188H113.6V143.2C113.6 140.918 112.694 138.73 111.082 137.115C109.469 135.501 107.282 134.593 105 134.59Z" fill="#7E0FFF"/>
<path opacity="0.4" d="M105 77.92C102.717 77.9226 100.529 78.8306 98.9147 80.4447C97.3006 82.0588 96.3926 84.2473 96.39 86.53V114.86C96.3506 116.015 96.5441 117.166 96.9588 118.244C97.3735 119.322 98.001 120.306 98.804 121.137C99.6069 121.968 100.569 122.628 101.632 123.08C102.696 123.531 103.84 123.763 104.995 123.763C106.15 123.763 107.294 123.531 108.358 123.08C109.421 122.628 110.383 121.968 111.186 121.137C111.989 120.306 112.617 119.322 113.031 118.244C113.446 117.166 113.639 116.015 113.6 114.86V86.53C113.6 84.2482 112.694 82.0597 111.082 80.4453C109.469 78.8309 107.282 77.9226 105 77.92Z" fill="#7E0FFF"/>
<path opacity="0.2" d="M105 42.5C102.717 42.5026 100.529 43.4106 98.9147 45.0247C97.3006 46.6388 96.3926 48.8273 96.39 51.11V58.19C96.3506 59.3447 96.5441 60.4955 96.9588 61.5739C97.3735 62.6523 98.001 63.6362 98.804 64.4669C99.6069 65.2977 100.569 65.9584 101.632 66.4096C102.696 66.8608 103.84 67.0934 104.995 67.0934C106.15 67.0934 107.294 66.8608 108.358 66.4096C109.421 65.9584 110.383 65.2977 111.186 64.4669C111.989 63.6362 112.617 62.6523 113.031 61.5739C113.446 60.4955 113.639 59.3447 113.6 58.19V51.11C113.6 48.8282 112.694 46.6397 111.082 45.0253C109.469 43.4109 107.282 42.5027 105 42.5Z" fill="#7E0FFF"/>
<path d="M124.31 106.25C122.027 106.253 119.839 107.161 118.225 108.775C116.611 110.389 115.703 112.577 115.7 114.86V188H132.92V114.86C132.917 112.577 132.009 110.389 130.395 108.775C128.781 107.161 126.593 106.253 124.31 106.25Z" fill="#7E0FFF"/>
<path opacity="0.4" d="M124.31 35.42C122.032 35.42 119.846 36.323 118.232 37.9312C116.619 39.5394 115.708 41.7217 115.7 44V86.53C115.7 88.8135 116.607 91.0035 118.222 92.6182C119.836 94.2329 122.026 95.14 124.31 95.14C126.594 95.14 128.784 94.2329 130.398 92.6182C132.013 91.0035 132.92 88.8135 132.92 86.53V44C132.912 41.7217 132.001 39.5394 130.388 37.9312C128.774 36.323 126.588 35.42 124.31 35.42Z" fill="#7E0FFF"/>
<path d="M143.59 35.42C141.315 35.4253 139.135 36.3306 137.525 37.9382C135.916 39.5459 135.008 41.7251 135 44V188H152.2V44C152.192 41.7217 151.281 39.5394 149.668 37.9312C148.054 36.323 145.868 35.42 143.59 35.42Z" fill="#7E0FFF"/>
<path opacity="0.2" d="M143.59 0C141.31 0.00529629 139.125 0.914756 137.515 2.52887C135.904 4.14299 135 6.32995 135 8.61V15.69C134.961 16.8447 135.154 17.9955 135.569 19.0739C135.983 20.1523 136.611 21.1362 137.414 21.9669C138.217 22.7977 139.179 23.4584 140.242 23.9096C141.306 24.3608 142.45 24.5934 143.605 24.5934C144.76 24.5934 145.904 24.3608 146.968 23.9096C148.031 23.4584 148.993 22.7977 149.796 21.9669C150.599 21.1362 151.226 20.1523 151.641 19.0739C152.056 17.9955 152.249 16.8447 152.21 15.69V8.61C152.207 6.32557 151.298 4.1356 149.682 2.5212C148.065 0.906802 145.874 -1.53721e-06 143.59 0Z" fill="#7E0FFF"/>
<path d="M162.88 106.25C160.597 106.253 158.409 107.161 156.795 108.775C155.181 110.389 154.273 112.577 154.27 114.86V188H171.48V114.86C171.477 112.579 170.571 110.392 168.959 108.778C167.347 107.164 165.161 106.255 162.88 106.25Z" fill="#7E0FFF"/>
<path opacity="0.2" d="M162.87 95.14C163.454 95.1325 164.037 95.0723 164.61 94.96C165.134 94.8493 165.647 94.6885 166.14 94.48C166.671 94.269 167.177 94.0007 167.65 93.68C168.138 93.3748 168.591 93.0159 169 92.61C170.608 90.9946 171.514 88.8095 171.52 86.53C171.52 85.9491 171.464 85.3697 171.35 84.8C171.236 84.2483 171.069 83.709 170.85 83.19C170.638 82.6872 170.381 82.2052 170.08 81.75C169.767 81.2767 169.405 80.8376 169 80.44C168.001 79.448 166.774 78.7154 165.427 78.3058C164.079 77.8962 162.652 77.8221 161.27 78.09C160.695 78.2028 160.133 78.3702 159.59 78.59C159.098 78.7997 158.626 79.0541 158.18 79.35C157.225 79.978 156.406 80.7906 155.77 81.74C155.459 82.2063 155.194 82.702 154.98 83.22C154.758 83.7267 154.594 84.2567 154.49 84.8C154.368 85.3686 154.308 85.9485 154.31 86.53C154.318 88.8094 155.226 90.9932 156.837 92.6059C158.448 94.2186 160.631 95.1295 162.91 95.14H162.87Z" fill="#7E0FFF"/>
<path d="M182.16 148.76C179.879 148.763 177.692 149.669 176.078 151.281C174.464 152.893 173.555 155.079 173.55 157.36V188H190.77V157.36C190.767 155.078 189.859 152.891 188.245 151.278C186.63 149.666 184.442 148.76 182.16 148.76Z" fill="#7E0FFF"/>
<path opacity="0.4" d="M182.16 77.92C179.877 77.9226 177.689 78.8306 176.075 80.4447C174.461 82.0588 173.553 84.2473 173.55 86.53V129C173.55 131.284 174.457 133.474 176.072 135.088C177.686 136.703 179.876 137.61 182.16 137.61C184.444 137.61 186.633 136.703 188.248 135.088C189.863 133.474 190.77 131.284 190.77 129V86.53C190.767 84.2473 189.859 82.0588 188.245 80.4447C186.631 78.8306 184.443 77.9226 182.16 77.92Z" fill="#7E0FFF"/>
<path opacity="0.2" d="M182.16 42.5C179.877 42.5026 177.689 43.4106 176.075 45.0247C174.461 46.6388 173.553 48.8273 173.55 51.11V58.19C173.55 60.4735 174.457 62.6635 176.072 64.2782C177.686 65.8929 179.876 66.8 182.16 66.8C184.444 66.8 186.633 65.8929 188.248 64.2782C189.863 62.6635 190.77 60.4735 190.77 58.19V51.11C190.767 48.8273 189.859 46.6388 188.245 45.0247C186.631 43.4106 184.443 42.5026 182.16 42.5Z" fill="#7E0FFF"/>
<path d="M201.45 134.59C199.167 134.593 196.979 135.501 195.365 137.115C193.751 138.729 192.843 140.917 192.84 143.2V188H210.05V143.2C210.05 140.918 209.144 138.73 207.532 137.115C205.919 135.501 203.732 134.593 201.45 134.59Z" fill="#7E0FFF"/>
<path opacity="0.4" d="M201.45 92.09C199.168 92.09 196.98 92.9958 195.365 94.6083C193.751 96.2208 192.843 98.4082 192.84 100.69V114.86C192.801 116.015 192.994 117.166 193.409 118.244C193.823 119.322 194.451 120.306 195.254 121.137C196.057 121.968 197.019 122.628 198.082 123.08C199.146 123.531 200.29 123.763 201.445 123.763C202.6 123.763 203.744 123.531 204.808 123.08C205.871 122.628 206.833 121.968 207.636 121.137C208.439 120.306 209.066 119.322 209.481 118.244C209.896 117.166 210.089 116.015 210.05 114.86V100.69C210.047 98.41 209.14 96.224 207.528 94.6118C205.916 92.9996 203.73 92.0926 201.45 92.09Z" fill="#7E0FFF"/>
<path opacity="0.2" d="M201.45 56.67C199.167 56.6726 196.979 57.5806 195.365 59.1947C193.751 60.8088 192.843 62.9973 192.84 65.28V72.36C192.801 73.5147 192.994 74.6655 193.409 75.7439C193.823 76.8223 194.451 77.8062 195.254 78.6369C196.057 79.4677 197.019 80.1284 198.082 80.5796C199.146 81.0309 200.29 81.2634 201.445 81.2634C202.6 81.2634 203.744 81.0309 204.808 80.5796C205.871 80.1284 206.833 79.4677 207.636 78.6369C208.439 77.8062 209.066 76.8223 209.481 75.7439C209.896 74.6655 210.089 73.5147 210.05 72.36V65.28C210.05 62.9982 209.144 60.8097 207.532 59.1953C205.919 57.5809 203.732 56.6726 201.45 56.67Z" fill="#7E0FFF"/>
<path d="M220.73 120.42C218.447 120.423 216.259 121.331 214.645 122.945C213.031 124.559 212.123 126.747 212.12 129.03V188.03H229.34V129C229.329 126.723 228.418 124.542 226.805 122.934C225.191 121.326 223.008 120.423 220.73 120.42Z" fill="#7E0FFF"/>
<path opacity="0.4" d="M220.73 35.42C218.448 35.42 216.26 36.3257 214.645 37.9383C213.031 39.5508 212.123 41.7382 212.12 44.02V100.69C212.12 102.974 213.027 105.164 214.642 106.778C216.257 108.393 218.446 109.3 220.73 109.3C223.014 109.3 225.204 108.393 226.818 106.778C228.433 105.164 229.34 102.974 229.34 100.69V44C229.332 41.7217 228.421 39.5394 226.808 37.9312C225.194 36.323 223.008 35.42 220.73 35.42Z" fill="#7E0FFF"/>
<path d="M240 85C237.718 85.0027 235.531 85.9109 233.918 87.5253C232.306 89.1397 231.4 91.3282 231.4 93.61V188H248.61V93.61C248.607 91.3273 247.699 89.1388 246.085 87.5247C244.471 85.9106 242.283 85.0026 240 85Z" fill="#7E0FFF"/>
<path opacity="0.4" d="M240 28.33C237.719 28.3353 235.533 29.2444 233.921 30.8583C232.309 32.4721 231.403 34.659 231.4 36.94V65.28C231.476 67.5114 232.416 69.626 234.021 71.1777C235.627 72.7293 237.772 73.5966 240.005 73.5966C242.238 73.5966 244.383 72.7293 245.989 71.1777C247.594 69.626 248.534 67.5114 248.61 65.28V36.94C248.607 34.6573 247.699 32.4689 246.085 30.8547C244.471 29.2406 242.283 28.3326 240 28.33Z" fill="#7E0FFF"/>
<path opacity="0.2" d="M232.05 11.88C232.257 12.3747 232.508 12.85 232.8 13.3C233.118 13.7876 233.49 14.2372 233.91 14.64C234.306 15.0429 234.741 15.4047 235.21 15.72C235.665 16.0238 236.151 16.2786 236.66 16.48C237.197 16.7194 237.761 16.894 238.34 17C238.88 17.106 239.429 17.1629 239.98 17.17C240.537 17.1649 241.093 17.1079 241.64 17C242.2 16.8932 242.747 16.7256 243.27 16.5C243.815 16.2843 244.335 16.0093 244.82 15.68C245.266 15.3802 245.687 15.0458 246.08 14.68C247.68 13.0599 248.581 10.877 248.59 8.6C248.6 8.06323 248.553 7.52692 248.45 7C248.363 6.42175 248.212 5.85494 248 5.31C247.789 4.79034 247.524 4.29428 247.21 3.83C246.901 3.35949 246.546 2.9207 246.15 2.52C245.748 2.11869 245.306 1.76011 244.83 1.45C244.354 1.12955 243.844 0.861342 243.31 0.649999C242.79 0.438138 242.251 0.27738 241.7 0.169999C240.02 -0.15051 238.283 0.023175 236.7 0.669999C236.213 0.880441 235.745 1.13132 235.3 1.42C234.338 2.05452 233.512 2.8737 232.87 3.83C232.258 4.75615 231.83 5.79175 231.61 6.88C231.383 7.99191 231.383 9.13809 231.61 10.25C231.704 10.8062 231.851 11.352 232.05 11.88Z" fill="#7E0FFF"/>
<path d="M259.3 120.42C257.017 120.423 254.829 121.331 253.215 122.945C251.601 124.559 250.693 126.747 250.69 129.03V188.03H267.9V129C267.892 126.723 266.983 124.543 265.371 122.935C263.759 121.327 261.577 120.423 259.3 120.42Z" fill="#7E0FFF"/>
<path opacity="0.4" d="M259.3 77.92C257.017 77.9226 254.829 78.8306 253.215 80.4447C251.601 82.0588 250.693 84.2473 250.69 86.53V100.69C250.651 101.845 250.844 102.996 251.259 104.074C251.674 105.152 252.301 106.136 253.104 106.967C253.907 107.798 254.869 108.458 255.932 108.91C256.996 109.361 258.14 109.593 259.295 109.593C260.45 109.593 261.594 109.361 262.658 108.91C263.721 108.458 264.683 107.798 265.486 106.967C266.289 106.136 266.916 105.152 267.331 104.074C267.746 102.996 267.939 101.845 267.9 100.69V86.53C267.9 84.2482 266.994 82.0597 265.382 80.4453C263.769 78.8309 261.582 77.9226 259.3 77.92Z" fill="#7E0FFF"/>
<path d="M278.58 134.59C276.302 134.601 274.122 135.512 272.514 137.125C270.906 138.739 270.003 140.922 270 143.2V188H287.22V143.2C287.219 142.067 286.994 140.946 286.559 139.9C286.124 138.854 285.487 137.904 284.685 137.104C283.882 136.304 282.93 135.671 281.883 135.239C280.835 134.808 279.713 134.587 278.58 134.59Z" fill="#7E0FFF"/>
<path opacity="0.4" d="M278.58 77.92C276.302 77.9306 274.122 78.842 272.514 80.4553C270.906 82.0686 270.003 84.2525 270 86.53V114.86C270 117.144 270.907 119.334 272.522 120.948C274.137 122.563 276.326 123.47 278.61 123.47C280.893 123.47 283.083 122.563 284.698 120.948C286.313 119.334 287.22 117.144 287.22 114.86V86.53C287.219 85.3972 286.994 84.2757 286.559 83.2297C286.124 82.1837 285.487 81.2338 284.685 80.4341C283.882 79.6345 282.93 79.0009 281.883 78.5695C280.835 78.1381 279.713 77.9174 278.58 77.92Z" fill="#7E0FFF"/>
<path opacity="0.2" d="M278.58 42.5C276.302 42.5106 274.122 43.422 272.514 45.0353C270.906 46.6485 270.003 48.8325 270 51.11V58.19C270 60.4735 270.907 62.6635 272.522 64.2782C274.137 65.8929 276.326 66.8 278.61 66.8C280.893 66.8 283.083 65.8929 284.698 64.2782C286.313 62.6635 287.22 60.4735 287.22 58.19V51.11C287.219 49.9772 286.994 48.8557 286.559 47.8097C286.124 46.7637 285.487 45.8138 284.685 45.0141C283.882 44.2145 282.93 43.5808 281.883 43.1494C280.835 42.7181 279.713 42.4974 278.58 42.5Z" fill="#7E0FFF"/>
<path d="M297.87 162.92C295.587 162.923 293.399 163.831 291.785 165.445C290.171 167.059 289.263 169.247 289.26 171.53V188H306.47V171.53C306.467 169.249 305.561 167.062 303.949 165.448C302.337 163.834 300.151 162.925 297.87 162.92Z" fill="#7E0FFF"/>
<path opacity="0.4" d="M297.87 106.25C295.587 106.253 293.399 107.161 291.785 108.775C290.171 110.389 289.263 112.577 289.26 114.86V143.2C289.336 145.431 290.276 147.546 291.881 149.098C293.487 150.649 295.632 151.517 297.865 151.517C300.098 151.517 302.243 150.649 303.849 149.098C305.454 147.546 306.394 145.431 306.47 143.2V114.86C306.467 112.579 305.561 110.392 303.949 108.778C302.337 107.164 300.151 106.255 297.87 106.25Z" fill="#7E0FFF"/>
<path opacity="0.2" d="M297.87 70.84C295.588 70.84 293.4 71.7458 291.785 73.3583C290.171 74.9708 289.263 77.1582 289.26 79.44V86.53C289.336 88.7614 290.276 90.876 291.881 92.4277C293.487 93.9793 295.632 94.8466 297.865 94.8466C300.098 94.8466 302.243 93.9793 303.849 92.4277C305.454 90.876 306.394 88.7614 306.47 86.53V79.44C306.467 77.16 305.56 74.974 303.948 73.3618C302.336 71.7496 300.15 70.8426 297.87 70.84Z" fill="#7E0FFF"/>
<path d="M317.15 120.42C314.867 120.423 312.679 121.331 311.065 122.945C309.451 124.559 308.543 126.747 308.54 129.03V188.03H325.76V129C325.749 126.723 324.838 124.542 323.225 122.934C321.611 121.326 319.428 120.423 317.15 120.42Z" fill="#7E0FFF"/>
<path opacity="0.4" d="M317.15 63.75C314.867 63.7526 312.679 64.6606 311.065 66.2747C309.451 67.8888 308.543 70.0773 308.54 72.36V100.69C308.54 102.974 309.447 105.164 311.062 106.778C312.676 108.393 314.866 109.3 317.15 109.3C319.434 109.3 321.624 108.393 323.238 106.778C324.853 105.164 325.76 102.974 325.76 100.69V72.36C325.757 70.0773 324.849 67.8888 323.235 66.2747C321.621 64.6606 319.433 63.7526 317.15 63.75Z" fill="#7E0FFF"/>
<path d="M336.43 63.75C334.148 63.7527 331.961 64.6609 330.348 66.2753C328.736 67.8897 327.83 70.0782 327.83 72.36V188H345V72.36C344.997 70.0842 344.095 67.9018 342.489 66.2888C340.884 64.6758 338.706 63.7632 336.43 63.75Z" fill="#7E0FFF"/>
<path opacity="0.4" d="M336.43 29.75C334.148 29.7527 331.961 30.6609 330.348 32.2753C328.736 33.8897 327.83 36.0782 327.83 38.36V44C327.74 45.1825 327.895 46.3709 328.285 47.4907C328.676 48.6105 329.293 49.6375 330.099 50.5074C330.905 51.3774 331.882 52.0714 332.969 52.546C334.056 53.0207 335.229 53.2656 336.415 53.2656C337.601 53.2656 338.774 53.0207 339.861 52.546C340.948 52.0714 341.925 51.3774 342.731 50.5074C343.537 49.6375 344.154 48.6105 344.545 47.4907C344.935 46.3709 345.09 45.1825 345 44V38.36C344.997 36.0842 344.095 33.9018 342.489 32.2888C340.884 30.6758 338.706 29.7632 336.43 29.75Z" fill="#7E0FFF"/>
<path opacity="0.2" d="M336.43 0C334.148 0.00265015 331.961 0.910942 330.348 2.52534C328.736 4.13974 327.83 6.32822 327.83 8.61V11.44C327.791 12.5947 327.984 13.7455 328.399 14.8239C328.813 15.9023 329.441 16.8862 330.244 17.7169C331.047 18.5477 332.009 19.2084 333.072 19.6596C334.136 20.1108 335.28 20.3434 336.435 20.3434C337.59 20.3434 338.734 20.1108 339.798 19.6596C340.861 19.2084 341.823 18.5477 342.626 17.7169C343.429 16.8862 344.057 15.9023 344.471 14.8239C344.886 13.7455 345.079 12.5947 345.04 11.44V8.61C345.037 6.3273 344.129 4.13885 342.515 2.52473C340.901 0.910619 338.713 0.00264661 336.43 0Z" fill="#7E0FFF"/>
<path d="M355.72 120.42C353.437 120.423 351.249 121.331 349.635 122.945C348.021 124.559 347.113 126.747 347.11 129.03V188.03H364.32V129C364.312 126.723 363.403 124.543 361.791 122.935C360.179 121.327 357.997 120.423 355.72 120.42Z" fill="#7E0FFF"/>
<path opacity="0.4" d="M355.72 77.92C353.437 77.9226 351.249 78.8306 349.635 80.4447C348.021 82.0588 347.113 84.2473 347.11 86.53V100.69C347.071 101.845 347.264 102.996 347.679 104.074C348.093 105.152 348.721 106.136 349.524 106.967C350.327 107.798 351.289 108.458 352.352 108.91C353.416 109.361 354.56 109.593 355.715 109.593C356.87 109.593 358.014 109.361 359.078 108.91C360.141 108.458 361.103 107.798 361.906 106.967C362.709 106.136 363.336 105.152 363.751 104.074C364.166 102.996 364.359 101.845 364.32 100.69V86.53C364.32 84.2482 363.414 82.0597 361.802 80.4453C360.189 78.8309 358.002 77.9226 355.72 77.92Z" fill="#7E0FFF"/>
<path d="M375 106.25C372.719 106.255 370.533 107.164 368.921 108.778C367.309 110.392 366.403 112.579 366.4 114.86V188H383.61V114.86C383.607 112.577 382.699 110.389 381.085 108.775C379.471 107.161 377.283 106.253 375 106.25Z" fill="#7E0FFF"/>
<path opacity="0.4" d="M375 49.58C372.719 49.5853 370.533 50.4944 368.921 52.1083C367.309 53.7221 366.403 55.909 366.4 58.19V86.53C366.476 88.7614 367.416 90.876 369.021 92.4277C370.627 93.9793 372.772 94.8466 375.005 94.8466C377.238 94.8466 379.383 93.9793 380.989 92.4277C382.594 90.876 383.534 88.7614 383.61 86.53V58.19C383.607 55.9073 382.699 53.7188 381.085 52.1047C379.471 50.4906 377.283 49.5826 375 49.58Z" fill="#7E0FFF"/>
<path opacity="0.2" d="M375 14.17C372.72 14.1726 370.534 15.0796 368.922 16.6918C367.31 18.304 366.403 20.4899 366.4 22.77V29.86C366.476 32.0914 367.416 34.206 369.021 35.7577C370.627 37.3093 372.772 38.1766 375.005 38.1766C377.238 38.1766 379.383 37.3093 380.989 35.7577C382.594 34.206 383.534 32.0914 383.61 29.86V22.77C383.607 20.4882 382.699 18.3008 381.085 16.6883C379.47 15.0757 377.282 14.17 375 14.17Z" fill="#7E0FFF"/>
<path d="M394.31 134.59C392.027 134.593 389.839 135.501 388.225 137.115C386.611 138.729 385.703 140.917 385.7 143.2V188H402.91V143.2C402.91 140.918 402.004 138.73 400.392 137.115C398.779 135.501 396.592 134.593 394.31 134.59Z" fill="#7E0FFF"/>
<path opacity="0.4" d="M394.31 77.92C392.027 77.9226 389.839 78.8306 388.225 80.4447C386.611 82.0588 385.703 84.2473 385.7 86.53V114.86C385.661 116.015 385.854 117.166 386.269 118.244C386.683 119.322 387.311 120.306 388.114 121.137C388.917 121.968 389.879 122.628 390.942 123.08C392.006 123.531 393.15 123.763 394.305 123.763C395.46 123.763 396.604 123.531 397.668 123.08C398.731 122.628 399.693 121.968 400.496 121.137C401.299 120.306 401.926 119.322 402.341 118.244C402.756 117.166 402.949 116.015 402.91 114.86V86.53C402.91 84.2482 402.004 82.0597 400.392 80.4453C398.779 78.8309 396.592 77.9226 394.31 77.92Z" fill="#7E0FFF"/>
<path opacity="0.2" d="M394.31 42.5C392.027 42.5026 389.839 43.4106 388.225 45.0247C386.611 46.6388 385.703 48.8273 385.7 51.11V58.19C385.661 59.3447 385.854 60.4955 386.269 61.5739C386.683 62.6523 387.311 63.6362 388.114 64.4669C388.917 65.2977 389.879 65.9584 390.942 66.4096C392.006 66.8608 393.15 67.0934 394.305 67.0934C395.46 67.0934 396.604 66.8608 397.668 66.4096C398.731 65.9584 399.693 65.2977 400.496 64.4669C401.299 63.6362 401.926 62.6523 402.341 61.5739C402.756 60.4955 402.949 59.3447 402.91 58.19V51.11C402.91 48.8282 402.004 46.6397 400.392 45.0253C398.779 43.4109 396.592 42.5027 394.31 42.5Z" fill="#7E0FFF"/>
<path d="M413.59 120.42C411.316 120.428 409.137 121.334 407.528 122.941C405.919 124.548 405.011 126.726 405 129V188H422.2V129C422.189 126.723 421.278 124.542 419.665 122.934C418.051 121.326 415.868 120.423 413.59 120.42Z" fill="#7E0FFF"/>
<path opacity="0.4" d="M413.59 35.42C411.315 35.4253 409.135 36.3306 407.525 37.9382C405.916 39.5459 405.008 41.7251 405 44V100.67C405 102.954 405.907 105.143 407.522 106.758C409.137 108.373 411.326 109.28 413.61 109.28C415.893 109.28 418.083 108.373 419.698 106.758C421.313 105.143 422.22 102.954 422.22 100.67V44C422.209 41.719 421.295 39.5353 419.678 37.927C418.06 36.3188 415.871 35.4173 413.59 35.42Z" fill="#7E0FFF"/>
<path d="M432.87 92.09C430.59 92.0926 428.404 92.9996 426.792 94.6118C425.18 96.224 424.273 98.41 424.27 100.69V188H441.48V100.69C441.477 98.4082 440.569 96.2208 438.955 94.6083C437.34 92.9958 435.152 92.09 432.87 92.09Z" fill="#7E0FFF"/>
<path opacity="0.4" d="M432.87 35.42C430.59 35.4226 428.404 36.3296 426.792 37.9418C425.18 39.554 424.273 41.74 424.27 44.02V72.36C424.231 73.5147 424.424 74.6655 424.839 75.7439C425.253 76.8223 425.881 77.8062 426.684 78.6369C427.487 79.4677 428.449 80.1284 429.512 80.5796C430.576 81.0309 431.72 81.2634 432.875 81.2634C434.03 81.2634 435.174 81.0309 436.238 80.5796C437.301 80.1284 438.263 79.4677 439.066 78.6369C439.869 77.8062 440.497 76.8223 440.911 75.7439C441.326 74.6655 441.519 73.5147 441.48 72.36V44C441.472 41.7217 440.561 39.5394 438.948 37.9312C437.334 36.323 435.148 35.42 432.87 35.42Z" fill="#7E0FFF"/>
<path opacity="0.2" d="M432.87 0C430.588 0.00265015 428.401 0.910942 426.788 2.52534C425.176 4.13974 424.27 6.32822 424.27 8.61V15.69C424.231 16.8447 424.424 17.9955 424.839 19.0739C425.253 20.1523 425.881 21.1362 426.684 21.9669C427.487 22.7977 428.449 23.4584 429.512 23.9096C430.576 24.3608 431.72 24.5934 432.875 24.5934C434.03 24.5934 435.174 24.3608 436.238 23.9096C437.301 23.4584 438.263 22.7977 439.066 21.9669C439.869 21.1362 440.497 20.1523 440.911 19.0739C441.326 17.9955 441.519 16.8447 441.48 15.69V8.61C441.477 6.3273 440.569 4.13885 438.955 2.52473C437.341 0.910619 435.153 0.00264661 432.87 0Z" fill="#7E0FFF"/>
<path d="M452.16 120.42C449.877 120.423 447.689 121.331 446.075 122.945C444.461 124.559 443.553 126.747 443.55 129.03V188.03H460.76V129C460.752 126.723 459.843 124.543 458.231 122.935C456.619 121.327 454.437 120.423 452.16 120.42Z" fill="#7E0FFF"/>
<path opacity="0.4" d="M452.16 77.92C449.877 77.9226 447.689 78.8306 446.075 80.4447C444.461 82.0588 443.553 84.2473 443.55 86.53V100.69C443.511 101.845 443.704 102.996 444.119 104.074C444.533 105.152 445.161 106.136 445.964 106.967C446.767 107.798 447.729 108.458 448.792 108.91C449.856 109.361 451 109.593 452.155 109.593C453.31 109.593 454.454 109.361 455.518 108.91C456.581 108.458 457.543 107.798 458.346 106.967C459.149 106.136 459.777 105.152 460.191 104.074C460.606 102.996 460.799 101.845 460.76 100.69V86.53C460.76 84.2482 459.854 82.0597 458.242 80.4453C456.629 78.8309 454.442 77.9226 452.16 77.92Z" fill="#7E0FFF"/>
<path d="M471.44 134.59C469.157 134.593 466.969 135.501 465.355 137.115C463.741 138.729 462.833 140.917 462.83 143.2V188H480.05V143.2C480.047 140.917 479.139 138.729 477.525 137.115C475.911 135.501 473.723 134.593 471.44 134.59Z" fill="#7E0FFF"/>
<path opacity="0.4" d="M471.44 92.09C469.158 92.09 466.97 92.9958 465.355 94.6083C463.741 96.2208 462.833 98.4082 462.83 100.69V114.86C462.83 117.144 463.737 119.334 465.352 120.948C466.966 122.563 469.156 123.47 471.44 123.47C473.724 123.47 475.914 122.563 477.528 120.948C479.143 119.334 480.05 117.144 480.05 114.86V100.69C480.047 98.4082 479.139 96.2208 477.525 94.6083C475.91 92.9958 473.722 92.09 471.44 92.09Z" fill="#7E0FFF"/>
<path opacity="0.2" d="M479.39 69.08C479.176 68.5554 478.912 68.053 478.6 67.58C477.975 66.6347 477.165 65.8253 476.22 65.2C475.741 64.8889 475.236 64.6212 474.71 64.4C474.201 64.1893 473.671 64.0318 473.13 63.93C472.025 63.7051 470.885 63.7051 469.78 63.93C469.208 64.0416 468.649 64.209 468.11 64.43C467.606 64.6497 467.121 64.9106 466.66 65.21C465.715 65.8353 464.905 66.6447 464.28 67.59C463.974 68.0488 463.716 68.5381 463.51 69.05C463.285 69.5815 463.114 70.1343 463 70.7C462.895 71.2472 462.842 71.8029 462.84 72.36C462.849 74.641 463.758 76.8262 465.37 78.44C465.758 78.8077 466.176 79.1422 466.62 79.44H466.68C467.607 80.0532 468.642 80.4842 469.73 80.71C470.299 80.8318 470.879 80.8921 471.46 80.89C472.011 80.8942 472.561 80.8372 473.1 80.72C473.657 80.6201 474.201 80.4557 474.72 80.23C475.267 80.0104 475.789 79.7356 476.28 79.41C476.725 79.1095 477.146 78.7752 477.54 78.41C478.549 77.4055 479.291 76.1652 479.7 74.8015C480.108 73.4378 480.17 71.9937 479.88 70.6C479.766 70.0787 479.602 69.5697 479.39 69.08Z" fill="#7E0FFF"/>
<path d="M490.72 134.59C488.438 134.593 486.251 135.501 484.638 137.115C483.026 138.73 482.12 140.918 482.12 143.2V188H499.33V143.2C499.327 140.917 498.419 138.729 496.805 137.115C495.191 135.501 493.003 134.593 490.72 134.59Z" fill="#7E0FFF"/>
<path opacity="0.4" d="M490.72 77.92C488.438 77.9226 486.251 78.8309 484.638 80.4453C483.026 82.0597 482.12 84.2482 482.12 86.53V114.86C482.081 116.015 482.274 117.166 482.689 118.244C483.103 119.322 483.731 120.306 484.534 121.137C485.337 121.968 486.299 122.628 487.362 123.08C488.426 123.531 489.57 123.763 490.725 123.763C491.88 123.763 493.024 123.531 494.088 123.08C495.151 122.628 496.113 121.968 496.916 121.137C497.719 120.306 498.347 119.322 498.761 118.244C499.176 117.166 499.369 116.015 499.33 114.86V86.53C499.327 84.2473 498.419 82.0588 496.805 80.4447C495.191 78.8306 493.003 77.9226 490.72 77.92Z" fill="#7E0FFF"/>
<path opacity="0.2" d="M490.72 42.5C488.438 42.5027 486.251 43.4109 484.638 45.0253C483.026 46.6397 482.12 48.8282 482.12 51.11V58.19C482.081 59.3447 482.274 60.4955 482.689 61.5739C483.103 62.6523 483.731 63.6362 484.534 64.4669C485.337 65.2977 486.299 65.9584 487.362 66.4096C488.426 66.8608 489.57 67.0934 490.725 67.0934C491.88 67.0934 493.024 66.8608 494.088 66.4096C495.151 65.9584 496.113 65.2977 496.916 64.4669C497.719 63.6362 498.347 62.6523 498.761 61.5739C499.176 60.4955 499.369 59.3447 499.33 58.19V51.11C499.327 48.8273 498.419 46.6388 496.805 45.0247C495.191 43.4106 493.003 42.5026 490.72 42.5Z" fill="#7E0FFF"/>
<path d="M510 106.25C507.717 106.253 505.529 107.161 503.915 108.775C502.301 110.389 501.393 112.577 501.39 114.86V188H518.6V114.86C518.597 112.579 517.691 110.392 516.079 108.778C514.467 107.164 512.281 106.255 510 106.25Z" fill="#7E0FFF"/>
<path opacity="0.4" d="M510 35.42C507.723 35.4226 505.541 36.3268 503.929 37.9347C502.317 39.5426 501.408 41.7234 501.4 44V86.53C501.476 88.7614 502.416 90.876 504.021 92.4277C505.627 93.9793 507.772 94.8466 510.005 94.8466C512.238 94.8466 514.383 93.9793 515.989 92.4277C517.594 90.876 518.534 88.7614 518.61 86.53V44C518.602 41.7217 517.691 39.5394 516.078 37.9312C514.464 36.323 512.278 35.42 510 35.42Z" fill="#7E0FFF"/>
<path d="M529.29 35.42C527.01 35.4226 524.824 36.3296 523.212 37.9418C521.6 39.554 520.693 41.74 520.69 44.02V188H537.9V44C537.892 41.7217 536.981 39.5394 535.368 37.9312C533.754 36.323 531.568 35.42 529.29 35.42Z" fill="#7E0FFF"/>
<path opacity="0.2" d="M529.29 0C527.008 0.00265015 524.821 0.910942 523.208 2.52534C521.596 4.13974 520.69 6.32822 520.69 8.61V15.69C520.651 16.8447 520.844 17.9955 521.259 19.0739C521.674 20.1523 522.301 21.1362 523.104 21.9669C523.907 22.7977 524.869 23.4584 525.932 23.9096C526.996 24.3608 528.14 24.5934 529.295 24.5934C530.45 24.5934 531.594 24.3608 532.658 23.9096C533.721 23.4584 534.683 22.7977 535.486 21.9669C536.289 21.1362 536.917 20.1523 537.331 19.0739C537.746 17.9955 537.939 16.8447 537.9 15.69V8.61C537.897 6.3273 536.989 4.13885 535.375 2.52473C533.761 0.910619 531.573 0.00264661 529.29 0Z" fill="#7E0FFF"/>
<path d="M548.58 106.25C546.297 106.253 544.109 107.161 542.495 108.775C540.881 110.389 539.973 112.577 539.97 114.86V188H557.18V114.86C557.177 112.579 556.271 110.392 554.659 108.778C553.047 107.164 550.861 106.255 548.58 106.25Z" fill="#7E0FFF"/>
<path opacity="0.2" d="M548.57 95.14C549.154 95.1325 549.737 95.0723 550.31 94.96C550.834 94.8478 551.346 94.6871 551.84 94.48C552.371 94.269 552.877 94.0007 553.35 93.68C553.823 93.3698 554.262 93.0112 554.66 92.61C555.872 91.4031 556.696 89.8615 557.026 88.183C557.355 86.5044 557.176 84.7657 556.51 83.19C556.292 82.6902 556.035 82.2086 555.74 81.75C555.427 81.2767 555.065 80.8376 554.66 80.44C553.66 79.4488 552.433 78.7166 551.086 78.3071C549.739 77.8975 548.312 77.823 546.93 78.09C546.355 78.2016 545.792 78.3691 545.25 78.59C544.758 78.7997 544.286 79.0541 543.84 79.35C543.35 79.6605 542.897 80.0263 542.49 80.44C542.094 80.8367 541.739 81.2722 541.43 81.74C541.119 82.2063 540.854 82.702 540.64 83.22C540.418 83.7267 540.254 84.2567 540.15 84.8C540.027 85.3684 539.967 85.9485 539.97 86.53C539.973 88.811 540.879 90.9979 542.491 92.6117C544.103 94.2256 546.289 95.1347 548.57 95.14Z" fill="#7E0FFF"/>
<path d="M567.86 148.76C565.578 148.76 563.39 149.666 561.775 151.278C560.161 152.891 559.253 155.078 559.25 157.36V188H576.47V157.36C576.467 155.078 575.559 152.891 573.945 151.278C572.33 149.666 570.142 148.76 567.86 148.76Z" fill="#7E0FFF"/>
<path opacity="0.4" d="M567.86 77.92C565.577 77.9226 563.389 78.8306 561.775 80.4447C560.161 82.0588 559.253 84.2473 559.25 86.53V129C559.25 131.284 560.157 133.474 561.772 135.088C563.386 136.703 565.576 137.61 567.86 137.61C570.143 137.61 572.333 136.703 573.948 135.088C575.563 133.474 576.47 131.284 576.47 129V86.53C576.467 84.2473 575.559 82.0588 573.945 80.4447C572.331 78.8306 570.143 77.9226 567.86 77.92Z" fill="#7E0FFF"/>
<path opacity="0.2" d="M567.86 42.5C565.577 42.5026 563.389 43.4106 561.775 45.0247C560.161 46.6388 559.253 48.8273 559.25 51.11V58.19C559.25 60.4735 560.157 62.6635 561.772 64.2782C563.386 65.8929 565.576 66.8 567.86 66.8C570.143 66.8 572.333 65.8929 573.948 64.2782C575.563 62.6635 576.47 60.4735 576.47 58.19V51.11C576.467 48.8273 575.559 46.6388 573.945 45.0247C572.331 43.4106 570.143 42.5026 567.86 42.5Z" fill="#7E0FFF"/>
<path d="M587.14 134.59C584.858 134.593 582.671 135.501 581.058 137.115C579.446 138.73 578.54 140.918 578.54 143.2V188H595.75V143.2C595.747 140.917 594.839 138.729 593.225 137.115C591.611 135.501 589.423 134.593 587.14 134.59Z" fill="#7E0FFF"/>
<path opacity="0.4" d="M587.14 92.09C584.86 92.0926 582.674 92.9996 581.062 94.6118C579.45 96.224 578.543 98.41 578.54 100.69V114.86C578.501 116.015 578.694 117.166 579.109 118.244C579.523 119.322 580.151 120.306 580.954 121.137C581.757 121.968 582.719 122.628 583.782 123.08C584.846 123.531 585.99 123.763 587.145 123.763C588.3 123.763 589.444 123.531 590.508 123.08C591.571 122.628 592.533 121.968 593.336 121.137C594.139 120.306 594.766 119.322 595.181 118.244C595.596 117.166 595.789 116.015 595.75 114.86V100.69C595.747 98.4082 594.839 96.2208 593.225 94.6083C591.61 92.9958 589.422 92.09 587.14 92.09Z" fill="#7E0FFF"/>
<path opacity="0.2" d="M587.14 56.67C584.858 56.6726 582.671 57.5809 581.058 59.1953C579.446 60.8097 578.54 62.9982 578.54 65.28V72.36C578.501 73.5147 578.694 74.6655 579.109 75.7439C579.523 76.8223 580.151 77.8062 580.954 78.6369C581.757 79.4677 582.719 80.1284 583.782 80.5796C584.846 81.0309 585.99 81.2634 587.145 81.2634C588.3 81.2634 589.444 81.0309 590.508 80.5796C591.571 80.1284 592.533 79.4677 593.336 78.6369C594.139 77.8062 594.766 76.8223 595.181 75.7439C595.596 74.6655 595.789 73.5147 595.75 72.36V65.28C595.747 62.9973 594.839 60.8088 593.225 59.1947C591.611 57.5806 589.423 56.6726 587.14 56.67Z" fill="#7E0FFF"/>
<path d="M606.43 120.42C604.147 120.423 601.959 121.331 600.345 122.945C598.731 124.559 597.823 126.747 597.82 129.03V188.03H615V129C614.992 126.729 614.087 124.552 612.482 122.945C610.877 121.338 608.701 120.431 606.43 120.42Z" fill="#7E0FFF"/>
<path opacity="0.4" d="M606.43 35.42C604.148 35.42 601.96 36.3257 600.345 37.9383C598.731 39.5508 597.823 41.7382 597.82 44.02V100.69C597.781 101.845 597.974 102.996 598.389 104.074C598.804 105.152 599.431 106.136 600.234 106.967C601.037 107.798 601.999 108.458 603.062 108.91C604.126 109.361 605.27 109.593 606.425 109.593C607.58 109.593 608.724 109.361 609.788 108.91C610.851 108.458 611.813 107.798 612.616 106.967C613.419 106.136 614.047 105.152 614.461 104.074C614.876 102.996 615.069 101.845 615.03 100.69V44C615.022 41.7234 614.113 39.5426 612.501 37.9347C610.889 36.3268 608.707 35.4226 606.43 35.42Z" fill="#7E0FFF"/>
<path d="M625.71 85C623.428 85.0027 621.241 85.9109 619.628 87.5253C618.016 89.1397 617.11 91.3282 617.11 93.61V188H634.32V93.61C634.317 91.3273 633.409 89.1388 631.795 87.5247C630.181 85.9106 627.993 85.0026 625.71 85Z" fill="#7E0FFF"/>
<path opacity="0.4" d="M625.71 28.33C623.429 28.3353 621.243 29.2444 619.631 30.8583C618.019 32.4721 617.113 34.659 617.11 36.94V65.28C617.186 67.5114 618.126 69.626 619.731 71.1777C621.337 72.7293 623.482 73.5966 625.715 73.5966C627.948 73.5966 630.093 72.7293 631.699 71.1777C633.304 69.626 634.244 67.5114 634.32 65.28V36.94C634.317 34.6573 633.409 32.4689 631.795 30.8547C630.181 29.2406 627.993 28.3326 625.71 28.33Z" fill="#7E0FFF"/>
<path opacity="0.2" d="M617.75 11.87V11.93C617.96 12.4251 618.215 12.9003 618.51 13.35C618.828 13.8376 619.2 14.2872 619.62 14.69C620.396 15.4871 621.329 16.1138 622.36 16.53C622.901 16.7681 623.468 16.9426 624.05 17.05C625.138 17.2767 626.262 17.2767 627.35 17.05C627.907 16.9446 628.45 16.7769 628.97 16.55C629.519 16.3366 630.043 16.0615 630.53 15.73C630.974 15.4327 631.392 15.0981 631.78 14.73C633.387 13.1133 634.292 10.9291 634.3 8.65C634.31 8.09618 634.26 7.54292 634.15 7C634.045 6.43753 633.881 5.88778 633.66 5.36C633.445 4.84218 633.181 4.34651 632.87 3.88C632.561 3.40949 632.206 2.9707 631.81 2.57C631.406 2.17107 630.964 1.81269 630.49 1.5C630.025 1.16408 629.526 0.879111 629 0.649999C628.483 0.438756 627.948 0.278006 627.4 0.169999C625.72 -0.15051 623.983 0.023175 622.4 0.669999C621.911 0.879628 621.442 1.13405 621 1.43C620.525 1.72952 620.086 2.08176 619.69 2.48C619.268 2.88691 618.892 3.33972 618.57 3.83C618.254 4.3089 617.986 4.81807 617.77 5.35C617.565 5.84286 617.41 6.35556 617.31 6.88C617.071 7.99059 617.071 9.13941 617.31 10.25C617.404 10.8029 617.552 11.3454 617.75 11.87Z" fill="#7E0FFF"/>
<path d="M645 120.42C642.717 120.423 640.529 121.331 638.915 122.945C637.301 124.559 636.393 126.747 636.39 129.03V188.03H653.6V129C653.592 126.723 652.683 124.543 651.071 122.935C649.459 121.327 647.277 120.423 645 120.42Z" fill="#7E0FFF"/>
<path opacity="0.4" d="M645 77.92C642.717 77.9226 640.529 78.8306 638.915 80.4447C637.301 82.0588 636.393 84.2473 636.39 86.53V100.69C636.351 101.845 636.544 102.996 636.959 104.074C637.374 105.152 638.001 106.136 638.804 106.967C639.607 107.798 640.569 108.458 641.632 108.91C642.696 109.361 643.84 109.593 644.995 109.593C646.15 109.593 647.294 109.361 648.358 108.91C649.421 108.458 650.383 107.798 651.186 106.967C651.989 106.136 652.616 105.152 653.031 104.074C653.446 102.996 653.639 101.845 653.6 100.69V86.53C653.6 84.2482 652.694 82.0597 651.082 80.4453C649.469 78.8309 647.282 77.9226 645 77.92Z" fill="#7E0FFF"/>
<path d="M664.28 134.59C661.997 134.593 659.809 135.501 658.195 137.115C656.581 138.729 655.673 140.917 655.67 143.2V188H672.89V143.2C672.887 140.917 671.979 138.729 670.365 137.115C668.751 135.501 666.563 134.593 664.28 134.59Z" fill="#7E0FFF"/>
<path opacity="0.4" d="M664.28 77.92C661.997 77.9226 659.809 78.8306 658.195 80.4447C656.581 82.0588 655.673 84.2473 655.67 86.53V114.86C655.67 117.144 656.577 119.334 658.192 120.948C659.807 122.563 661.997 123.47 664.28 123.47C666.564 123.47 668.753 122.563 670.368 120.948C671.983 119.334 672.89 117.144 672.89 114.86V86.53C672.887 84.2473 671.979 82.0588 670.365 80.4447C668.751 78.8306 666.563 77.9226 664.28 77.92Z" fill="#7E0FFF"/>
<path opacity="0.2" d="M664.28 42.5C661.997 42.5026 659.809 43.4106 658.195 45.0247C656.581 46.6388 655.673 48.8273 655.67 51.11V58.19C655.67 60.4735 656.577 62.6635 658.192 64.2782C659.807 65.8929 661.997 66.8 664.28 66.8C666.564 66.8 668.753 65.8929 670.368 64.2782C671.983 62.6635 672.89 60.4735 672.89 58.19V51.11C672.887 48.8273 671.979 46.6388 670.365 45.0247C668.751 43.4106 666.563 42.5026 664.28 42.5Z" fill="#7E0FFF"/>
<path d="M683.56 162.92C681.279 162.925 679.093 163.834 677.481 165.448C675.869 167.062 674.963 169.249 674.96 171.53V188H692.17V171.53C692.167 169.247 691.259 167.059 689.645 165.445C688.031 163.831 685.843 162.923 683.56 162.92Z" fill="#7E0FFF"/>
<path opacity="0.4" d="M683.56 106.25C681.279 106.255 679.093 107.164 677.481 108.778C675.869 110.392 674.963 112.579 674.96 114.86V143.2C675.036 145.431 675.976 147.546 677.581 149.098C679.187 150.649 681.332 151.517 683.565 151.517C685.798 151.517 687.943 150.649 689.549 149.098C691.154 147.546 692.094 145.431 692.17 143.2V114.86C692.167 112.577 691.259 110.389 689.645 108.775C688.031 107.161 685.843 106.253 683.56 106.25Z" fill="#7E0FFF"/>
<path opacity="0.2" d="M683.56 70.84C681.28 70.8426 679.094 71.7496 677.482 73.3618C675.87 74.974 674.963 77.16 674.96 79.44V86.53C675.036 88.7614 675.976 90.876 677.581 92.4277C679.187 93.9793 681.332 94.8466 683.565 94.8466C685.798 94.8466 687.943 93.9793 689.549 92.4277C691.154 90.876 692.094 88.7614 692.17 86.53V79.44C692.167 77.1582 691.259 74.9708 689.645 73.3583C688.03 71.7458 685.842 70.84 683.56 70.84Z" fill="#7E0FFF"/>
<path d="M702.85 120.42C700.567 120.423 698.379 121.331 696.765 122.945C695.151 124.559 694.243 126.747 694.24 129.03V188.03H711.45V129C711.442 126.723 710.533 124.543 708.921 122.935C707.309 121.327 705.127 120.423 702.85 120.42Z" fill="#7E0FFF"/>
<path opacity="0.4" d="M702.85 63.75C700.567 63.7526 698.379 64.6606 696.765 66.2747C695.151 67.8888 694.243 70.0773 694.24 72.36V100.69C694.201 101.845 694.394 102.996 694.809 104.074C695.223 105.152 695.851 106.136 696.654 106.967C697.457 107.798 698.419 108.458 699.482 108.91C700.546 109.361 701.69 109.593 702.845 109.593C704 109.593 705.144 109.361 706.208 108.91C707.271 108.458 708.233 107.798 709.036 106.967C709.839 106.136 710.467 105.152 710.881 104.074C711.296 102.996 711.489 101.845 711.45 100.69V72.36C711.45 70.0782 710.544 67.8897 708.932 66.2753C707.319 64.6609 705.132 63.7527 702.85 63.75Z" fill="#7E0FFF"/>
<path d="M722.13 63.75C719.848 63.7527 717.661 64.6609 716.048 66.2753C714.436 67.8897 713.53 70.0782 713.53 72.36V188H730.74V72.36C730.737 70.0773 729.829 67.8888 728.215 66.2747C726.601 64.6606 724.413 63.7526 722.13 63.75Z" fill="#7E0FFF"/>
<path opacity="0.4" d="M722.13 29.75C719.848 29.7527 717.661 30.6609 716.048 32.2753C714.436 33.8897 713.53 36.0782 713.53 38.36V44C713.491 45.1547 713.684 46.3055 714.099 47.3839C714.513 48.4623 715.141 49.4462 715.944 50.2769C716.747 51.1077 717.709 51.7684 718.772 52.2196C719.836 52.6708 720.98 52.9034 722.135 52.9034C723.29 52.9034 724.434 52.6708 725.498 52.2196C726.561 51.7684 727.523 51.1077 728.326 50.2769C729.129 49.4462 729.756 48.4623 730.171 47.3839C730.586 46.3055 730.779 45.1547 730.74 44V38.36C730.737 36.0773 729.829 33.8888 728.215 32.2747C726.601 30.6606 724.413 29.7526 722.13 29.75Z" fill="#7E0FFF"/>
<path opacity="0.2" d="M722.13 0C719.848 0.00265015 717.661 0.910942 716.048 2.52534C714.436 4.13974 713.53 6.32822 713.53 8.61V11.44C713.491 12.5947 713.684 13.7455 714.099 14.8239C714.513 15.9023 715.141 16.8862 715.944 17.7169C716.747 18.5477 717.709 19.2084 718.772 19.6596C719.836 20.1108 720.98 20.3434 722.135 20.3434C723.29 20.3434 724.434 20.1108 725.498 19.6596C726.561 19.2084 727.523 18.5477 728.326 17.7169C729.129 16.8862 729.756 15.9023 730.171 14.8239C730.586 13.7455 730.779 12.5947 730.74 11.44V8.61C730.737 6.3273 729.829 4.13885 728.215 2.52473C726.601 0.910619 724.413 0.00264661 722.13 0Z" fill="#7E0FFF"/>
<path d="M741.42 120.42C739.137 120.423 736.949 121.331 735.335 122.945C733.721 124.559 732.813 126.747 732.81 129.03V188.03H750V129C749.992 126.727 749.086 124.549 747.478 122.942C745.871 121.334 743.693 120.428 741.42 120.42Z" fill="#7E0FFF"/>
<path opacity="0.4" d="M741.42 77.92C739.137 77.9226 736.949 78.8306 735.335 80.4447C733.721 82.0588 732.813 84.2473 732.81 86.53V100.69C732.771 101.845 732.964 102.996 733.379 104.074C733.793 105.152 734.421 106.136 735.224 106.967C736.027 107.798 736.989 108.458 738.052 108.91C739.116 109.361 740.26 109.593 741.415 109.593C742.57 109.593 743.714 109.361 744.778 108.91C745.841 108.458 746.803 107.798 747.606 106.967C748.409 106.136 749.037 105.152 749.451 104.074C749.866 102.996 750.059 101.845 750.02 100.69V86.53C750.02 84.2482 749.114 82.0597 747.502 80.4453C745.889 78.8309 743.702 77.9226 741.42 77.92Z" fill="#7E0FFF"/>
<path d="M760.7 106.25C758.417 106.253 756.229 107.161 754.615 108.775C753.001 110.389 752.093 112.577 752.09 114.86V188H769.31V114.86C769.307 112.577 768.399 110.389 766.785 108.775C765.171 107.161 762.983 106.253 760.7 106.25Z" fill="#7E0FFF"/>
<path opacity="0.4" d="M760.7 49.58C758.417 49.5826 756.229 50.4906 754.615 52.1047C753.001 53.7188 752.093 55.9073 752.09 58.19V86.53C752.09 88.8135 752.997 91.0035 754.612 92.6182C756.227 94.2329 758.416 95.14 760.7 95.14C762.984 95.14 765.174 94.2329 766.788 92.6182C768.403 91.0035 769.31 88.8135 769.31 86.53V58.19C769.307 55.9073 768.399 53.7188 766.785 52.1047C765.171 50.4906 762.983 49.5826 760.7 49.58Z" fill="#7E0FFF"/>
<path opacity="0.2" d="M760.7 14.17C758.418 14.17 756.23 15.0757 754.615 16.6883C753.001 18.3008 752.093 20.4882 752.09 22.77V29.86C752.09 32.1435 752.997 34.3335 754.612 35.9482C756.227 37.5629 758.416 38.47 760.7 38.47C762.984 38.47 765.174 37.5629 766.788 35.9482C768.403 34.3335 769.31 32.1435 769.31 29.86V22.77C769.307 20.4882 768.399 18.3008 766.785 16.6883C765.17 15.0757 762.982 14.17 760.7 14.17Z" fill="#7E0FFF"/>
<path d="M780 134.59C777.718 134.593 775.531 135.501 773.918 137.115C772.306 138.73 771.4 140.918 771.4 143.2V188H788.61V143.2C788.607 140.917 787.699 138.729 786.085 137.115C784.471 135.501 782.283 134.593 780 134.59Z" fill="#7E0FFF"/>
<path opacity="0.4" d="M780 77.92C777.718 77.9226 775.531 78.8309 773.918 80.4453C772.306 82.0597 771.4 84.2482 771.4 86.53V114.86C771.361 116.015 771.554 117.166 771.969 118.244C772.384 119.322 773.011 120.306 773.814 121.137C774.617 121.968 775.579 122.628 776.642 123.08C777.706 123.531 778.85 123.763 780.005 123.763C781.16 123.763 782.304 123.531 783.368 123.08C784.431 122.628 785.393 121.968 786.196 121.137C786.999 120.306 787.626 119.322 788.041 118.244C788.456 117.166 788.649 116.015 788.61 114.86V86.53C788.607 84.2473 787.699 82.0588 786.085 80.4447C784.471 78.8306 782.283 77.9226 780 77.92Z" fill="#7E0FFF"/>
<path opacity="0.2" d="M780 42.5C777.718 42.5027 775.531 43.4109 773.918 45.0253C772.306 46.6397 771.4 48.8282 771.4 51.11V58.19C771.361 59.3447 771.554 60.4955 771.969 61.5739C772.384 62.6523 773.011 63.6362 773.814 64.4669C774.617 65.2977 775.579 65.9584 776.642 66.4096C777.706 66.8608 778.85 67.0934 780.005 67.0934C781.16 67.0934 782.304 66.8608 783.368 66.4096C784.431 65.9584 785.393 65.2977 786.196 64.4669C786.999 63.6362 787.626 62.6523 788.041 61.5739C788.456 60.4955 788.649 59.3447 788.61 58.19V51.11C788.607 48.8273 787.699 46.6388 786.085 45.0247C784.471 43.4106 782.283 42.5026 780 42.5Z" fill="#7E0FFF"/>
<path d="M799.29 120.42C797.007 120.423 794.819 121.331 793.205 122.945C791.591 124.559 790.683 126.747 790.68 129.03V188.03H807.89V129C807.882 126.723 806.973 124.543 805.361 122.935C803.749 121.327 801.567 120.423 799.29 120.42Z" fill="#7E0FFF"/>
<path opacity="0.4" d="M799.29 35.42C797.008 35.42 794.82 36.3257 793.205 37.9383C791.591 39.5508 790.683 41.7382 790.68 44.02V100.69C790.641 101.845 790.834 102.996 791.249 104.074C791.663 105.152 792.291 106.136 793.094 106.967C793.897 107.798 794.859 108.458 795.922 108.91C796.986 109.361 798.13 109.593 799.285 109.593C800.44 109.593 801.584 109.361 802.648 108.91C803.711 108.458 804.673 107.798 805.476 106.967C806.279 106.136 806.907 105.152 807.321 104.074C807.736 102.996 807.929 101.845 807.89 100.69V44C807.882 41.7234 806.973 39.5426 805.361 37.9347C803.749 36.3268 801.567 35.4226 799.29 35.42Z" fill="#7E0FFF"/>
<path d="M818.57 92.09C816.288 92.09 814.1 92.9958 812.485 94.6083C810.871 96.2208 809.963 98.4082 809.96 100.69V188H827.18V100.69C827.175 98.409 826.266 96.2231 824.652 94.6112C823.038 92.9992 820.851 92.0926 818.57 92.09Z" fill="#7E0FFF"/>
<path opacity="0.4" d="M818.57 35.42C816.299 35.4305 814.123 36.3382 812.518 37.9453C810.913 39.5523 810.008 41.7286 810 44V72.36C810 74.6435 810.907 76.8335 812.522 78.4482C814.136 80.0629 816.326 80.97 818.61 80.97C820.893 80.97 823.083 80.0629 824.698 78.4482C826.313 76.8335 827.22 74.6435 827.22 72.36V44C827.209 41.7156 826.292 39.5288 824.671 37.92C823.049 36.3112 820.854 35.412 818.57 35.42Z" fill="#7E0FFF"/>
<path opacity="0.2" d="M818.57 -1.17685e-06C816.294 0.013198 814.116 0.925827 812.511 2.5388C810.905 4.15178 810.003 6.3342 810 8.61V15.69C810 17.9735 810.907 20.1635 812.522 21.7782C814.136 23.3929 816.326 24.3 818.61 24.3C820.893 24.3 823.083 23.3929 824.698 21.7782C826.313 20.1635 827.22 17.9735 827.22 15.69V8.61C827.219 7.47632 826.994 6.35403 826.558 5.3074C826.122 4.26077 825.485 3.31035 824.681 2.51058C823.878 1.7108 822.924 1.07738 821.876 0.646575C820.827 0.215772 819.704 -0.00394746 818.57 -1.17685e-06Z" fill="#7E0FFF"/>
<path d="M837.85 120.42C835.568 120.423 833.381 121.331 831.768 122.945C830.156 124.56 829.25 126.748 829.25 129.03V188.03H846.46V129C846.449 126.723 845.538 124.542 843.925 122.934C842.311 121.326 840.127 120.423 837.85 120.42Z" fill="#7E0FFF"/>
<path opacity="0.4" d="M837.85 77.92C835.568 77.9226 833.381 78.8309 831.768 80.4453C830.156 82.0597 829.25 84.2482 829.25 86.53V100.69C829.211 101.845 829.404 102.996 829.819 104.074C830.233 105.152 830.861 106.136 831.664 106.967C832.467 107.798 833.429 108.458 834.492 108.91C835.556 109.361 836.7 109.593 837.855 109.593C839.01 109.593 840.154 109.361 841.218 108.91C842.281 108.458 843.243 107.798 844.046 106.967C844.849 106.136 845.477 105.152 845.891 104.074C846.306 102.996 846.499 101.845 846.46 100.69V86.53C846.457 84.2473 845.549 82.0588 843.935 80.4447C842.321 78.8306 840.133 77.9226 837.85 77.92Z" fill="#7E0FFF"/>
<path d="M857.14 134.59C854.857 134.593 852.669 135.501 851.055 137.115C849.441 138.729 848.533 140.917 848.53 143.2V188H865.74V143.2C865.74 140.918 864.834 138.73 863.222 137.115C861.609 135.501 859.422 134.593 857.14 134.59Z" fill="#7E0FFF"/>
<path opacity="0.4" d="M857.14 92.09C854.858 92.09 852.67 92.9958 851.055 94.6083C849.441 96.2208 848.533 98.4082 848.53 100.69V114.86C848.491 116.015 848.684 117.166 849.099 118.244C849.513 119.322 850.141 120.306 850.944 121.137C851.747 121.968 852.709 122.628 853.772 123.08C854.836 123.531 855.98 123.763 857.135 123.763C858.29 123.763 859.434 123.531 860.498 123.08C861.561 122.628 862.523 121.968 863.326 121.137C864.129 120.306 864.756 119.322 865.171 118.244C865.586 117.166 865.779 116.015 865.74 114.86V100.69C865.737 98.41 864.83 96.224 863.218 94.6118C861.606 92.9996 859.42 92.0926 857.14 92.09Z" fill="#7E0FFF"/>
<path opacity="0.2" d="M865.09 69.08C864.877 68.5533 864.609 68.0505 864.29 67.58C863.978 67.1084 863.62 66.6695 863.22 66.27C862.82 65.8711 862.381 65.5127 861.91 65.2C861.436 64.8866 860.934 64.6187 860.41 64.4C859.897 64.1894 859.365 64.0319 858.82 63.93C857.718 63.7051 856.582 63.7051 855.48 63.93C854.908 64.0401 854.348 64.2076 853.81 64.43C853.306 64.6497 852.821 64.9106 852.36 65.21C851.889 65.5227 851.45 65.8811 851.05 66.28C850.658 66.6773 850.306 67.1128 850 67.58C849.692 68.0377 849.434 68.5272 849.23 69.04C849.001 69.5743 848.827 70.1305 848.71 70.7C848.605 71.2472 848.552 71.8029 848.55 72.36C848.558 74.6391 849.464 76.8233 851.07 78.44C851.46 78.81 851.881 79.1446 852.33 79.44H852.39C852.842 79.7375 853.321 79.992 853.82 80.2C854.34 80.4245 854.884 80.5921 855.44 80.7C856.005 80.822 856.582 80.8823 857.16 80.88C857.715 80.8842 858.268 80.8272 858.81 80.71C859.367 80.6087 859.91 80.4443 860.43 80.22C860.976 80.0004 861.499 79.7256 861.99 79.4C862.432 79.0995 862.85 78.7652 863.24 78.4C864.852 76.7862 865.761 74.601 865.77 72.32C865.768 71.1939 865.544 70.0793 865.11 69.04L865.09 69.08Z" fill="#7E0FFF"/>
<path d="M876.42 134.59C874.137 134.593 871.949 135.501 870.335 137.115C868.721 138.729 867.813 140.917 867.81 143.2V188H885V143.2C884.997 140.922 884.094 138.739 882.486 137.125C880.878 135.512 878.697 134.601 876.42 134.59Z" fill="#7E0FFF"/>
<path opacity="0.4" d="M876.42 77.92C874.137 77.9226 871.949 78.8306 870.335 80.4447C868.721 82.0588 867.813 84.2473 867.81 86.53V114.86C867.81 117.144 868.717 119.334 870.332 120.948C871.946 122.563 874.136 123.47 876.42 123.47C878.703 123.47 880.893 122.563 882.508 120.948C884.123 119.334 885.03 117.144 885.03 114.86V86.53C885.027 84.2473 884.119 82.0588 882.505 80.4447C880.891 78.8306 878.703 77.9226 876.42 77.92Z" fill="#7E0FFF"/>
<path opacity="0.2" d="M876.42 42.5C874.137 42.5026 871.949 43.4106 870.335 45.0247C868.721 46.6388 867.813 48.8273 867.81 51.11V58.19C867.81 60.4735 868.717 62.6635 870.332 64.2782C871.946 65.8929 874.136 66.8 876.42 66.8C878.703 66.8 880.893 65.8929 882.508 64.2782C884.123 62.6635 885.03 60.4735 885.03 58.19V51.11C885.027 48.8273 884.119 46.6388 882.505 45.0247C880.891 43.4106 878.703 42.5026 876.42 42.5Z" fill="#7E0FFF"/>
<path d="M895.71 106.25C893.427 106.253 891.239 107.161 889.625 108.775C888.011 110.389 887.103 112.577 887.1 114.86V188H904.31V114.86C904.307 112.579 903.401 110.392 901.789 108.778C900.177 107.164 897.991 106.255 895.71 106.25Z" fill="#7E0FFF"/>
<path opacity="0.4" d="M895.71 35.42C893.432 35.42 891.246 36.323 889.632 37.9312C888.019 39.5394 887.108 41.7217 887.1 44V86.53C887.176 88.7614 888.116 90.876 889.721 92.4277C891.327 93.9793 893.472 94.8466 895.705 94.8466C897.938 94.8466 900.083 93.9793 901.689 92.4277C903.294 90.876 904.234 88.7614 904.31 86.53V44C904.302 41.7234 903.393 39.5426 901.781 37.9347C900.169 36.3268 897.987 35.4226 895.71 35.42Z" fill="#7E0FFF"/>
<path d="M915 35.42C912.718 35.42 910.53 36.3257 908.915 37.9383C907.301 39.5508 906.393 41.7382 906.39 44.02V188H923.6V44C923.589 41.7242 922.679 39.545 921.068 37.9376C919.457 36.3303 917.276 35.4253 915 35.42Z" fill="#7E0FFF"/>
<path opacity="0.2" d="M915 0C912.717 0.00264661 910.529 0.910619 908.915 2.52473C907.301 4.13885 906.393 6.3273 906.39 8.61V15.69C906.39 17.9735 907.297 20.1635 908.912 21.7782C910.526 23.3929 912.716 24.3 915 24.3C917.284 24.3 919.474 23.3929 921.088 21.7782C922.703 20.1635 923.61 17.9735 923.61 15.69V8.61C923.607 6.3273 922.699 4.13885 921.085 2.52473C919.471 0.910619 917.283 0.00264661 915 0Z" fill="#7E0FFF"/>
<path d="M934.27 106.25C931.989 106.255 929.803 107.164 928.191 108.778C926.579 110.392 925.673 112.579 925.67 114.86V188H942.88V114.86C942.877 112.577 941.969 110.389 940.355 108.775C938.741 107.161 936.553 106.253 934.27 106.25Z" fill="#7E0FFF"/>
<path opacity="0.2" d="M934.27 95.14C934.85 95.1452 935.429 95.0984 936 95C936.527 94.8877 937.043 94.727 937.54 94.52C938.071 94.309 938.577 94.0407 939.05 93.72C939.523 93.4098 939.962 93.0512 940.36 92.65C941.968 91.0346 942.874 88.8495 942.88 86.57C942.886 85.4227 942.658 84.2862 942.21 83.23C941.993 82.728 941.732 82.2461 941.43 81.79C941.124 81.3146 940.765 80.8752 940.36 80.48C939.359 79.4872 938.131 78.7541 936.782 78.3445C935.433 77.935 934.004 77.8613 932.62 78.13C932.049 78.2429 931.489 78.4103 930.95 78.63C930.457 78.8376 929.985 79.0921 929.54 79.39C929.05 79.7005 928.597 80.0663 928.19 80.48C927.791 80.8736 927.435 81.3095 927.13 81.78C926.812 82.2438 926.544 82.7399 926.33 83.26C926.114 83.7679 925.953 84.2976 925.85 84.84C925.719 85.4073 925.656 85.9879 925.66 86.57C925.668 88.8511 926.578 91.0365 928.191 92.6494C929.804 94.2624 931.989 95.1721 934.27 95.18V95.14Z" fill="#7E0FFF"/>
<path d="M953.56 148.76C951.278 148.76 949.09 149.666 947.475 151.278C945.861 152.891 944.953 155.078 944.95 157.36V188H962.16V157.36C962.157 155.08 961.25 152.894 959.638 151.282C958.026 149.67 955.84 148.763 953.56 148.76Z" fill="#7E0FFF"/>
<path opacity="0.4" d="M953.56 77.92C951.286 77.9358 949.11 78.8496 947.507 80.4623C945.904 82.075 945.003 84.2559 945 86.53V129C945.076 131.231 946.016 133.346 947.621 134.898C949.227 136.449 951.372 137.317 953.605 137.317C955.838 137.317 957.983 136.449 959.589 134.898C961.194 133.346 962.134 131.231 962.21 129V86.53C962.21 85.3959 961.986 84.2731 961.551 83.2258C961.116 82.1786 960.478 81.2277 959.674 80.4276C958.87 79.6276 957.916 78.9942 956.867 78.5639C955.818 78.1335 954.694 77.9147 953.56 77.92Z" fill="#7E0FFF"/>
<path opacity="0.2" d="M953.56 42.5C951.286 42.5158 949.11 43.4296 947.507 45.0423C945.904 46.655 945.003 48.8359 945 51.11V58.19C944.961 59.3447 945.154 60.4955 945.569 61.5739C945.983 62.6523 946.611 63.6362 947.414 64.467C948.217 65.2977 949.179 65.9584 950.242 66.4096C951.306 66.8608 952.45 67.0934 953.605 67.0934C954.76 67.0934 955.904 66.8608 956.968 66.4096C958.031 65.9584 958.993 65.2977 959.796 64.467C960.599 63.6362 961.227 62.6523 961.641 61.5739C962.056 60.4955 962.249 59.3447 962.21 58.19V51.11C962.21 49.9759 961.986 48.8531 961.551 47.8058C961.116 46.7586 960.478 45.8077 959.674 45.0076C958.87 44.2076 957.916 43.5742 956.867 43.1439C955.818 42.7136 954.694 42.4947 953.56 42.5Z" fill="#7E0FFF"/>
<path d="M972.84 134.59C970.557 134.593 968.369 135.501 966.755 137.115C965.141 138.729 964.233 140.917 964.23 143.2V188H981.45V143.2C981.447 140.917 980.539 138.729 978.925 137.115C977.311 135.501 975.123 134.593 972.84 134.59Z" fill="#7E0FFF"/>
<path opacity="0.4" d="M972.84 92.09C970.559 92.0926 968.372 92.9992 966.758 94.6112C965.144 96.2231 964.235 98.409 964.23 100.69V114.86C964.23 117.144 965.137 119.334 966.752 120.948C968.367 122.563 970.557 123.47 972.84 123.47C975.124 123.47 977.313 122.563 978.928 120.948C980.543 119.334 981.45 117.144 981.45 114.86V100.69C981.447 98.4082 980.539 96.2208 978.925 94.6083C977.31 92.9958 975.122 92.09 972.84 92.09Z" fill="#7E0FFF"/>
<path opacity="0.2" d="M972.84 56.67C970.557 56.6726 968.369 57.5806 966.755 59.1947C965.141 60.8088 964.233 62.9973 964.23 65.28V72.36C964.23 74.6435 965.137 76.8335 966.752 78.4482C968.367 80.0629 970.557 80.97 972.84 80.97C975.124 80.97 977.313 80.0629 978.928 78.4482C980.543 76.8335 981.45 74.6435 981.45 72.36V65.28C981.447 62.9973 980.539 60.8088 978.925 59.1947C977.311 57.5806 975.123 56.6726 972.84 56.67Z" fill="#7E0FFF"/>
<path d="M992.13 120.42C989.847 120.423 987.659 121.331 986.045 122.945C984.431 124.559 983.523 126.747 983.52 129.03V188.03H1000.73V129C1000.72 126.723 999.813 124.543 998.201 122.935C996.59 121.327 994.407 120.423 992.13 120.42Z" fill="#7E0FFF"/>
<path opacity="0.4" d="M992.13 35.42C989.848 35.42 987.66 36.3257 986.045 37.9383C984.431 39.5508 983.523 41.7382 983.52 44.02V100.69C983.481 101.845 983.674 102.996 984.089 104.074C984.504 105.152 985.131 106.136 985.934 106.967C986.737 107.798 987.699 108.458 988.762 108.91C989.826 109.361 990.97 109.593 992.125 109.593C993.28 109.593 994.424 109.361 995.488 108.91C996.551 108.458 997.513 107.798 998.316 106.967C999.119 106.136 999.746 105.152 1000.16 104.074C1000.58 102.996 1000.77 101.845 1000.73 100.69V44C1000.72 41.7234 999.813 39.5426 998.201 37.9347C996.589 36.3268 994.407 35.4226 992.13 35.42Z" fill="#7E0FFF"/>
<path d="M1011.41 85C1009.13 85.0026 1006.94 85.9106 1005.32 87.5247C1003.71 89.1388 1002.8 91.3273 1002.8 93.61V188H1020V93.61C1020 91.3308 1019.09 89.1453 1017.48 87.5318C1015.87 85.9182 1013.69 85.0079 1011.41 85Z" fill="#7E0FFF"/>
<path opacity="0.4" d="M1011.41 28.33C1009.13 28.3326 1006.94 29.2406 1005.32 30.8547C1003.71 32.4689 1002.8 34.6573 1002.8 36.94V65.28C1002.8 67.5635 1003.71 69.7535 1005.32 71.3682C1006.94 72.9829 1009.13 73.89 1011.41 73.89C1013.69 73.89 1015.88 72.9829 1017.5 71.3682C1019.11 69.7535 1020.02 67.5635 1020.02 65.28V36.94C1020.02 34.6573 1019.11 32.4689 1017.5 30.8547C1015.88 29.2406 1013.69 28.3326 1011.41 28.33Z" fill="#7E0FFF"/>
<path opacity="0.2" d="M1003.45 11.87V11.93C1003.66 12.4271 1003.91 12.9027 1004.21 13.35C1004.52 13.8374 1004.89 14.287 1005.31 14.69C1005.71 15.0906 1006.14 15.4522 1006.61 15.77C1007.07 16.0698 1007.55 16.3244 1008.06 16.53C1008.6 16.7695 1009.17 16.944 1009.75 17.05C1010.84 17.2767 1011.96 17.2767 1013.05 17.05C1013.61 16.9446 1014.15 16.7769 1014.67 16.55C1015.22 16.3386 1015.74 16.0633 1016.22 15.73C1016.67 15.4349 1017.09 15.1003 1017.48 14.73C1019.1 13.1035 1020 10.903 1020 8.61C1020 8.05237 1019.94 7.49623 1019.83 6.95C1019.72 6.38729 1019.55 5.83759 1019.33 5.31C1019.12 4.79076 1018.86 4.29472 1018.55 3.83C1017.92 2.88475 1017.12 2.07528 1016.17 1.45C1015.69 1.13161 1015.18 0.863514 1014.65 0.650003C1013.09 0.0031445 1011.38 -0.16401 1009.73 0.170003C1009.16 0.278996 1008.6 0.446543 1008.06 0.670003C1007.57 0.881907 1007.1 1.1362 1006.65 1.43C1006.18 1.73219 1005.74 2.08423 1005.35 2.48C1004.92 2.88433 1004.55 3.33747 1004.23 3.83C1003.91 4.31081 1003.64 4.81962 1003.42 5.35C1003.22 5.844 1003.06 6.35638 1002.96 6.88C1002.84 7.44856 1002.78 8.02855 1002.78 8.61C1002.78 9.16128 1002.83 9.71131 1002.95 10.25C1003.06 10.8053 1003.23 11.348 1003.45 11.87Z" fill="#7E0FFF"/>
<path d="M1030.69 120.42C1028.41 120.423 1026.22 121.331 1024.61 122.945C1023 124.56 1022.09 126.748 1022.09 129.03V188.03H1039.3V129C1039.29 126.723 1038.38 124.542 1036.76 122.934C1035.15 121.326 1032.97 120.423 1030.69 120.42Z" fill="#7E0FFF"/>
<path opacity="0.4" d="M1030.69 77.92C1028.41 77.9226 1026.22 78.8309 1024.61 80.4453C1023 82.0597 1022.09 84.2482 1022.09 86.53V100.69C1022.05 101.845 1022.24 102.996 1022.66 104.074C1023.07 105.152 1023.7 106.136 1024.5 106.967C1025.31 107.798 1026.27 108.458 1027.33 108.91C1028.4 109.361 1029.54 109.593 1030.69 109.593C1031.85 109.593 1032.99 109.361 1034.06 108.91C1035.12 108.458 1036.08 107.798 1036.89 106.967C1037.69 106.136 1038.32 105.152 1038.73 104.074C1039.15 102.996 1039.34 101.845 1039.3 100.69V86.53C1039.3 84.2473 1038.39 82.0588 1036.78 80.4447C1035.16 78.8306 1032.97 77.9226 1030.69 77.92Z" fill="#7E0FFF"/>
<path d="M1050 134.59C1047.72 134.593 1045.53 135.501 1043.91 137.115C1042.3 138.729 1041.39 140.917 1041.39 143.2V188H1058.6V143.2C1058.6 140.918 1057.69 138.73 1056.08 137.115C1054.47 135.501 1052.28 134.593 1050 134.59Z" fill="#7E0FFF"/>
<path opacity="0.4" d="M1050 77.92C1047.72 77.9226 1045.53 78.8306 1043.91 80.4447C1042.3 82.0588 1041.39 84.2473 1041.39 86.53V114.86C1041.35 116.015 1041.54 117.166 1041.96 118.244C1042.37 119.322 1043 120.306 1043.8 121.137C1044.61 121.968 1045.57 122.628 1046.63 123.08C1047.7 123.531 1048.84 123.763 1049.99 123.763C1051.15 123.763 1052.29 123.531 1053.36 123.08C1054.42 122.628 1055.38 121.968 1056.19 121.137C1056.99 120.306 1057.62 119.322 1058.03 118.244C1058.45 117.166 1058.64 116.015 1058.6 114.86V86.53C1058.6 84.2482 1057.69 82.0597 1056.08 80.4453C1054.47 78.8309 1052.28 77.9226 1050 77.92Z" fill="#7E0FFF"/>
<path opacity="0.2" d="M1050 42.5C1047.72 42.5026 1045.53 43.4106 1043.91 45.0247C1042.3 46.6388 1041.39 48.8273 1041.39 51.11V58.19C1041.35 59.3447 1041.54 60.4955 1041.96 61.5739C1042.37 62.6523 1043 63.6362 1043.8 64.4669C1044.61 65.2977 1045.57 65.9584 1046.63 66.4096C1047.7 66.8608 1048.84 67.0934 1049.99 67.0934C1051.15 67.0934 1052.29 66.8608 1053.36 66.4096C1054.42 65.9584 1055.38 65.2977 1056.19 64.4669C1056.99 63.6362 1057.62 62.6523 1058.03 61.5739C1058.45 60.4955 1058.64 59.3447 1058.6 58.19V51.11C1058.6 48.8282 1057.69 46.6397 1056.08 45.0253C1054.47 43.4109 1052.28 42.5027 1050 42.5Z" fill="#7E0FFF"/>
<path d="M1069.26 162.92C1066.98 162.925 1064.79 163.834 1063.18 165.448C1061.56 167.061 1060.66 169.248 1060.65 171.53V188H1077.87V171.53C1077.87 169.247 1076.96 167.059 1075.35 165.445C1073.73 163.831 1071.54 162.923 1069.26 162.92Z" fill="#7E0FFF"/>
<path opacity="0.4" d="M1069.26 106.25C1066.98 106.255 1064.79 107.164 1063.18 108.778C1061.56 110.391 1060.66 112.578 1060.65 114.86V143.2C1060.65 145.484 1061.56 147.674 1063.17 149.288C1064.79 150.903 1066.98 151.81 1069.26 151.81C1071.54 151.81 1073.73 150.903 1075.35 149.288C1076.96 147.674 1077.87 145.484 1077.87 143.2V114.86C1077.87 112.577 1076.96 110.389 1075.35 108.775C1073.73 107.161 1071.54 106.253 1069.26 106.25Z" fill="#7E0FFF"/>
<path opacity="0.2" d="M1069.26 70.84C1066.98 70.8426 1064.79 71.7492 1063.18 73.3612C1061.56 74.9731 1060.66 77.159 1060.65 79.44V86.53C1060.65 88.8135 1061.56 91.0035 1063.17 92.6182C1064.79 94.2329 1066.98 95.14 1069.26 95.14C1071.54 95.14 1073.73 94.2329 1075.35 92.6182C1076.96 91.0035 1077.87 88.8135 1077.87 86.53V79.44C1077.87 77.1582 1076.96 74.9708 1075.34 73.3583C1073.73 71.7458 1071.54 70.84 1069.26 70.84Z" fill="#7E0FFF"/>
<path d="M1088.54 120.42C1086.26 120.423 1084.07 121.331 1082.46 122.945C1080.85 124.56 1079.94 126.748 1079.94 129.03V188.03H1097.15V129C1097.14 126.723 1096.23 124.542 1094.61 122.934C1093 121.326 1090.82 120.423 1088.54 120.42Z" fill="#7E0FFF"/>
<path opacity="0.4" d="M1088.54 63.75C1086.26 63.7527 1084.07 64.6609 1082.46 66.2753C1080.85 67.8897 1079.94 70.0782 1079.94 72.36V100.69C1079.9 101.845 1080.09 102.996 1080.51 104.074C1080.92 105.152 1081.55 106.136 1082.35 106.967C1083.16 107.798 1084.12 108.458 1085.18 108.91C1086.25 109.361 1087.39 109.593 1088.55 109.593C1089.7 109.593 1090.84 109.361 1091.91 108.91C1092.97 108.458 1093.93 107.798 1094.74 106.967C1095.54 106.136 1096.17 105.152 1096.58 104.074C1097 102.996 1097.19 101.845 1097.15 100.69V72.36C1097.15 70.0773 1096.24 67.8888 1094.63 66.2747C1093.01 64.6606 1090.82 63.7526 1088.54 63.75Z" fill="#7E0FFF"/>
<path d="M1107.83 63.75C1105.55 63.7526 1103.36 64.6606 1101.74 66.2747C1100.13 67.8888 1099.22 70.0773 1099.22 72.36V188H1116.44V72.36C1116.44 70.0773 1115.53 67.8888 1113.92 66.2747C1112.3 64.6606 1110.11 63.7526 1107.83 63.75Z" fill="#7E0FFF"/>
<path opacity="0.4" d="M1107.83 29.75C1105.55 29.7526 1103.36 30.6606 1101.74 32.2747C1100.13 33.8888 1099.22 36.0773 1099.22 38.36V44C1099.22 46.2835 1100.13 48.4735 1101.74 50.0882C1103.36 51.7029 1105.55 52.61 1107.83 52.61C1110.11 52.61 1112.3 51.7029 1113.92 50.0882C1115.53 48.4735 1116.44 46.2835 1116.44 44V38.36C1116.44 36.0773 1115.53 33.8888 1113.92 32.2747C1112.3 30.6606 1110.11 29.7526 1107.83 29.75Z" fill="#7E0FFF"/>
<path opacity="0.2" d="M1107.83 0C1105.55 0.00264661 1103.36 0.910619 1101.74 2.52473C1100.13 4.13885 1099.22 6.3273 1099.22 8.61V11.44C1099.22 13.7235 1100.13 15.9135 1101.74 17.5282C1103.36 19.1429 1105.55 20.05 1107.83 20.05C1110.11 20.05 1112.3 19.1429 1113.92 17.5282C1115.53 15.9135 1116.44 13.7235 1116.44 11.44V8.61C1116.44 6.3273 1115.53 4.13885 1113.92 2.52473C1112.3 0.910619 1110.11 0.00264661 1107.83 0Z" fill="#7E0FFF"/>
<path d="M1127.11 120.42C1124.83 120.423 1122.64 121.331 1121.03 122.945C1119.42 124.56 1118.51 126.748 1118.51 129.03V188.03H1135.72V129C1135.71 126.723 1134.8 124.542 1133.18 122.934C1131.57 121.326 1129.39 120.423 1127.11 120.42Z" fill="#7E0FFF"/>
<path opacity="0.4" d="M1127.11 77.92C1124.83 77.9226 1122.64 78.8309 1121.03 80.4453C1119.42 82.0597 1118.51 84.2482 1118.51 86.53V100.69C1118.47 101.845 1118.66 102.996 1119.08 104.074C1119.49 105.152 1120.12 106.136 1120.92 106.967C1121.73 107.798 1122.69 108.458 1123.75 108.91C1124.82 109.361 1125.96 109.593 1127.11 109.593C1128.27 109.593 1129.41 109.361 1130.48 108.91C1131.54 108.458 1132.5 107.798 1133.31 106.967C1134.11 106.136 1134.74 105.152 1135.15 104.074C1135.57 102.996 1135.76 101.845 1135.72 100.69V86.53C1135.72 84.2473 1134.81 82.0588 1133.2 80.4447C1131.58 78.8306 1129.39 77.9226 1127.11 77.92Z" fill="#7E0FFF"/>
<path d="M1146.4 106.25C1144.12 106.253 1141.93 107.161 1140.31 108.775C1138.7 110.389 1137.79 112.577 1137.79 114.86V188H1155V114.86C1155 112.579 1154.09 110.392 1152.48 108.778C1150.87 107.164 1148.68 106.255 1146.4 106.25Z" fill="#7E0FFF"/>
<path opacity="0.4" d="M1146.4 49.58C1144.12 49.5826 1141.93 50.4906 1140.31 52.1047C1138.7 53.7188 1137.79 55.9073 1137.79 58.19V86.53C1137.87 88.7614 1138.81 90.876 1140.41 92.4277C1142.02 93.9793 1144.16 94.8466 1146.4 94.8466C1148.63 94.8466 1150.77 93.9793 1152.38 92.4277C1153.98 90.876 1154.92 88.7614 1155 86.53V58.19C1155 55.909 1154.09 53.7221 1152.48 52.1083C1150.87 50.4944 1148.68 49.5853 1146.4 49.58Z" fill="#7E0FFF"/>
<path opacity="0.2" d="M1146.4 14.17C1144.12 14.17 1141.93 15.0757 1140.32 16.6883C1138.7 18.3008 1137.79 20.4882 1137.79 22.77V29.86C1137.87 32.0914 1138.81 34.206 1140.41 35.7577C1142.02 37.3093 1144.16 38.1766 1146.4 38.1766C1148.63 38.1766 1150.77 37.3093 1152.38 35.7577C1153.98 34.206 1154.92 32.0914 1155 29.86V22.77C1155 20.4899 1154.09 18.304 1152.48 16.6918C1150.87 15.0796 1148.68 14.1726 1146.4 14.17Z" fill="#7E0FFF"/>
</g>
<defs>
<clipPath id="clip0_5_145">
<rect width="1155" height="188" fill="white"/>
</clipPath>
</defs>
</svg>
