<svg width="509" height="383" viewBox="0 0 509 383" fill="none" xmlns="http://www.w3.org/2000/svg">
<path d="M498.51 7.09946L509 17.589V23.2457L498.51 12.7563L498.506 12.7609L495.677 9.93243L495.682 9.92789C488.089 2.33464 475.778 2.33464 468.184 9.92789C460.591 17.5211 460.591 29.8322 468.184 37.4254L468.189 37.4204L471.018 40.2488L471.015 40.2521L477.453 46.6908L477.449 46.6899L509 78.241V83.8979L465.356 40.2539C456.201 31.0985 456.201 16.2548 465.356 7.09946C474.511 -2.05588 489.355 -2.05588 498.51 7.09946Z" fill="#FFE9FF"/>
<path d="M460.079 80.2273L509 129.149V134.805L466.515 92.3202L466.516 92.3246L460.077 85.8859L460.074 85.8892L457.245 83.0608L457.25 83.0557C449.657 75.4625 437.346 75.4625 429.753 83.0557C422.16 90.649 422.16 102.96 429.753 110.553L429.757 110.549L432.586 113.377L432.581 113.382L446.723 127.523C450.334 130.485 452.649 135.057 452.649 140.187C452.649 146.495 449.148 151.96 444.042 154.624C443.422 155.109 442.825 155.636 442.255 156.207C434.662 163.8 434.662 176.111 442.255 183.704L442.26 183.7L445.088 186.528L445.083 186.533L482.112 223.562C483.736 217.141 482.035 210.053 477.012 205.029L477.007 205.034L474.763 202.79L453.974 182.254C445.45 173.834 445.45 160.181 453.975 151.76C462.499 143.34 476.319 143.34 484.843 151.76L509 175.624V180.843L481.737 153.911C474.638 147.381 463.522 147.532 456.608 154.362C449.538 161.346 449.538 172.669 456.608 179.653L456.613 179.648L459.246 182.249L459.243 182.252L465.238 188.174L465.234 188.174L478.371 201.151L478.332 201.19L482.467 205.325C486.915 211.658 487.863 219.699 485.312 226.761L509 250.449V256.106L483.507 230.613C482.515 232.307 481.293 233.903 479.841 235.355C470.704 244.491 455.903 244.51 446.743 235.412L446.737 235.407L446.686 235.355L378.356 167.025C370.731 159.926 358.793 160.09 351.367 167.516C343.773 175.109 343.773 187.42 351.367 195.013L351.372 195.008L354.2 197.836L354.197 197.84L360.635 204.278L360.631 204.278L419.249 262.895L419.25 262.894L422.079 265.722L422.075 265.726L463.164 306.816C472.32 315.971 472.32 330.815 463.164 339.97C454.028 349.106 439.227 349.125 430.067 340.027L430.061 340.022L430.01 339.97L361.68 271.64C354.055 264.541 342.116 264.704 334.69 272.13C327.097 279.724 327.097 292.035 334.69 299.628L334.696 299.623L337.524 302.451L337.521 302.455L343.959 308.893L343.955 308.892L353.888 318.825L353.893 318.859L357.447 322.413C366.602 331.568 366.602 346.412 357.447 355.567C348.311 364.703 333.51 364.722 324.35 355.624L324.343 355.619L324.292 355.567L255.962 287.236C248.337 280.138 236.399 280.301 228.973 287.727C221.38 295.32 221.38 307.632 228.973 315.225L228.978 315.22L231.806 318.048L231.803 318.051L238.242 324.49L238.237 324.489L260.42 346.672C260.997 346.207 261.527 345.692 262.004 345.135C263.019 343.358 264.284 341.685 265.8 340.169C274.956 331.014 289.799 331.014 298.955 340.169L341.48 382.694H335.823L298.955 345.826L298.95 345.83L296.122 343.002L296.126 342.997C288.533 335.404 276.222 335.404 268.629 342.997C268.058 343.568 267.531 344.165 267.046 344.784C266.105 346.588 264.814 348.192 263.26 349.512L296.442 382.694H290.786L259.835 351.743C257.66 352.798 255.206 353.391 252.609 353.391C247.479 353.391 242.907 351.076 239.945 347.465L225.804 333.324L225.799 333.328L222.971 330.5L222.975 330.495C215.382 322.902 203.071 322.902 195.478 330.495C194.91 331.063 194.385 331.657 193.902 332.273L193.865 332.293C190.411 336.634 185.083 339.417 179.104 339.417C174.122 339.417 169.59 337.484 166.22 334.327L166.184 334.318L133.333 301.466L133.328 301.471L130.5 298.643L130.504 298.638C122.911 291.045 110.6 291.045 103.007 298.638C95.4133 306.231 95.4133 318.542 103.007 326.136L103.012 326.131L105.84 328.959L105.837 328.962L112.275 335.401L112.271 335.4L159.565 382.694H153.908L100.178 328.964C91.0228 319.809 91.0228 304.965 100.178 295.81C109.333 286.654 124.177 286.654 133.333 295.81L167.753 330.23L167.841 330.247C170.565 333.412 174.6 335.417 179.104 335.417C183.888 335.417 188.144 333.155 190.861 329.642L190.885 329.64C191.429 328.957 192.017 328.298 192.649 327.667C201.805 318.511 216.648 318.511 225.804 327.667L242.755 344.618L242.823 344.654L242.867 344.71C242.891 344.741 242.914 344.771 242.939 344.802L244.852 346.715C246.942 348.38 249.632 349.391 252.609 349.391C254.083 349.391 255.487 349.143 256.782 348.691L226.144 318.053C216.989 308.898 216.989 294.054 226.144 284.899C235.263 275.78 250.025 275.744 259.189 284.79L259.252 284.842L259.247 284.847L259.299 284.899L327.629 353.229C335.254 360.328 347.192 360.164 354.618 352.739C362.212 345.145 362.212 332.834 354.618 325.241L354.613 325.246L351.785 322.418L351.788 322.414L345.349 315.976L345.354 315.976L336.276 306.899L336.288 306.883L331.862 302.456C322.707 293.301 322.707 278.457 331.862 269.302C340.981 260.183 355.743 260.147 364.907 269.193L364.97 269.246L364.965 269.251L365.016 269.302L433.347 337.632C440.972 344.731 452.91 344.568 460.336 337.142C467.929 329.548 467.929 317.237 460.336 309.644L460.331 309.649L457.503 306.821L457.506 306.817L451.067 300.379L451.071 300.38L392.454 241.762L392.45 241.765L389.622 238.937L389.628 238.931L348.538 197.841C339.383 188.686 339.383 173.842 348.538 164.687C357.657 155.568 372.419 155.532 381.583 164.578L381.646 164.631L381.641 164.636L381.693 164.687L450.023 233.017C457.648 240.116 469.586 239.953 477.012 232.527C478.479 231.06 479.662 229.418 480.562 227.668L439.427 186.533C430.271 177.377 430.271 162.534 439.427 153.378C440.943 151.862 442.616 150.597 444.392 149.582C446.975 147.37 448.649 144.015 448.649 140.187C448.649 137.21 447.637 134.52 445.973 132.43L444.059 130.517C444.01 130.478 443.961 130.439 443.912 130.401L443.875 130.333L426.924 113.382C417.769 104.226 417.769 89.3826 426.924 80.2273C436.08 71.072 450.923 71.072 460.079 80.2273Z" fill="#FFE9FF"/>
<path d="M102.936 382.694L82.822 362.58C73.6667 353.425 58.8229 353.425 49.6676 362.58C44.1877 368.06 41.9878 375.578 43.0678 382.694H47.1236C46.0051 376.617 47.7959 370.109 52.496 365.409C60.0893 357.815 72.4003 357.815 79.9936 365.409L79.989 365.413L82.8174 368.242L82.822 368.237L97.2792 382.694H102.936Z" fill="#FFE9FF"/>
<path fill-rule="evenodd" clip-rule="evenodd" d="M47.1065 335.485C47.1065 348.452 36.5954 358.963 23.6292 358.963C10.6631 358.963 0.151917 348.452 0.151917 335.485C0.151917 322.519 10.6631 312.008 23.6292 312.008C36.5954 312.008 47.1065 322.519 47.1065 335.485ZM43.1065 335.485C43.1065 346.242 34.3862 354.963 23.6292 354.963C12.8722 354.963 4.15192 346.242 4.15192 335.485C4.15192 324.728 12.8722 316.008 23.6292 316.008C34.3862 316.008 43.1065 324.728 43.1065 335.485Z" fill="#FFE9FF"/>
<path fill-rule="evenodd" clip-rule="evenodd" d="M325.947 242.196C325.947 255.162 315.436 265.673 302.469 265.673C289.503 265.673 278.992 255.162 278.992 242.196C278.992 229.229 289.503 218.718 302.469 218.718C315.436 218.718 325.947 229.229 325.947 242.196ZM321.947 242.196C321.947 252.953 313.227 261.673 302.469 261.673C291.712 261.673 282.992 252.953 282.992 242.196C282.992 231.439 291.712 222.718 302.469 222.718C313.227 222.718 321.947 231.439 321.947 242.196Z" fill="#FFE9FF"/>
</svg>
