<svg width="448" height="361" viewBox="0 0 448 361" fill="none" xmlns="http://www.w3.org/2000/svg">
<path fill-rule="evenodd" clip-rule="evenodd" d="M93.5168 0.694214L133.215 40.3929L133.212 40.396L138.199 45.3825L138.196 45.3853L194.656 101.845L194.651 101.844L195.585 102.777C188.941 105.144 181.267 103.785 175.806 98.7007L107.476 30.3702L107.424 30.3189L107.418 30.3131C98.2585 21.2149 83.4576 21.234 74.3213 30.3702C65.166 39.5256 65.166 54.3693 74.3213 63.5246L115.411 104.614L115.407 104.618L118.235 107.447L118.237 107.445L133.394 122.602C133.011 123.15 132.662 123.723 132.352 124.318C131.867 124.937 131.34 125.534 130.769 126.105C123.176 133.698 110.865 133.698 103.272 126.105L103.276 126.1L100.448 123.272L100.443 123.276L36.1391 58.972L36.1415 58.9697L0 22.8282V28.485L29.735 58.2201L29.7327 58.2224L100.443 128.933C109.599 138.088 124.442 138.088 133.598 128.933C134.644 127.886 135.571 126.765 136.379 125.587L176.855 166.063L176.85 166.062L183.289 172.501L183.286 172.504L186.114 175.332L186.119 175.327C193.712 182.92 193.712 195.232 186.119 202.825C178.693 210.251 166.755 210.414 159.13 203.316L90.7995 134.985L90.748 134.934L90.7422 134.928C81.5824 125.83 66.7814 125.849 57.6451 134.985C49.4705 143.16 48.5948 155.869 55.0182 165.016L59.1532 169.151L59.1149 169.189L72.252 182.167L72.2479 182.166L78.2427 188.088L78.2397 188.091L80.8731 190.692L80.8777 190.688C87.9474 197.671 87.9474 208.994 80.8777 215.978C73.9635 222.809 62.8478 222.959 55.7488 216.429L0 161.357V166.576L52.6427 218.58C61.1668 227 74.9871 227 83.5111 218.58C92.0352 210.159 92.0352 196.507 83.5112 188.086L62.7232 167.551L60.4786 165.306L60.4736 165.311C52.8803 157.718 52.8803 145.407 60.4736 137.814C67.8996 130.388 79.8379 130.224 87.4626 137.323L155.793 205.653L155.845 205.705L155.84 205.71L155.903 205.762C165.067 214.808 179.829 214.772 188.947 205.653C198.103 196.498 198.103 181.654 188.947 172.499L147.858 131.409L147.864 131.403L145.035 128.575L145.032 128.578L138.926 122.472C141.03 120.757 143.762 119.711 146.789 119.711C149.766 119.711 152.456 120.722 154.546 122.387L156.459 124.3L156.487 124.335L156.52 124.377L156.533 124.394L156.575 124.448L156.643 124.484L173.594 141.435C182.75 150.591 197.593 150.591 206.749 141.435C215.904 132.28 215.904 117.436 206.749 108.281L202.283 103.815C203.46 103.009 204.579 102.083 205.624 101.038C214.779 91.883 214.779 77.0393 205.624 67.8839L201.197 63.4577L201.209 63.4412L192.132 54.3639L192.136 54.3647L185.698 47.926L185.701 47.9228L182.872 45.0944L182.867 45.0994C175.274 37.5061 175.274 25.1951 182.867 17.6018C190.293 10.1758 202.232 10.0123 209.856 17.1112L278.187 85.4415L278.238 85.4929L278.233 85.4978L278.297 85.5507C287.46 94.5967 302.222 94.5603 311.341 85.4415C320.497 76.2862 320.497 61.4425 311.341 52.2871L259.748 0.694214H254.091L299.248 45.8511L299.244 45.8502L305.683 52.2889L305.679 52.2921L308.508 55.1206L308.513 55.1155C316.106 62.7088 316.106 75.0199 308.513 82.6131C301.087 90.0391 289.149 90.2027 281.524 83.1039L213.193 14.7734L213.142 14.722L213.136 14.7163C203.976 5.6181 189.175 5.63714 180.039 14.7734C170.884 23.9287 170.884 38.7725 180.039 47.9278L183.592 51.4814L183.598 51.5151L193.531 61.4479L193.526 61.4471L199.965 67.8857L199.962 67.889L202.79 70.7174L202.795 70.7124C210.388 78.3056 210.388 90.6167 202.795 98.2099C201.744 99.2612 200.602 100.167 199.395 100.927L136.363 37.8952L136.369 37.8894L99.1736 0.694214H93.5168ZM198.658 105.851C190.079 109.704 179.659 108.136 172.579 101.147L172.516 101.095L172.521 101.09L172.469 101.038L104.139 32.708C96.5141 25.6091 84.5757 25.7726 77.1497 33.1987C69.5565 40.7919 69.5565 53.103 77.1497 60.6962L77.1547 60.6912L79.9832 63.5196L79.9799 63.5229L86.4186 69.9615L86.4142 69.9607L136.087 119.634C138.938 117.192 142.685 115.711 146.789 115.711C151.919 115.711 156.491 118.026 159.453 121.637L173.594 135.779L173.599 135.774L176.427 138.602L176.423 138.607C184.016 146.2 196.327 146.2 203.92 138.607C211.514 131.014 211.514 118.703 203.92 111.109L203.915 111.114L201.087 108.286L201.09 108.283L198.658 105.851Z" fill="#F3EEFF"/>
<path d="M336.006 0.694214L360.532 25.2204C369.688 34.3757 384.531 34.3757 393.687 25.2204C400.319 18.5884 402.147 8.97156 399.17 0.694214H394.86C398.059 7.84176 396.725 16.5251 390.858 22.392C383.265 29.9852 370.954 29.9852 363.361 22.392L363.365 22.3874L360.537 19.559L360.532 19.5635L341.663 0.694214H336.006Z" fill="#F3EEFF"/>
<path d="M22.756 353.405L0 330.649V324.992L22.756 347.748L22.7605 347.743L25.5889 350.572L25.5844 350.576C33.1776 358.17 45.4887 358.17 53.0819 350.576C60.6752 342.983 60.6752 330.672 53.0819 323.079L53.0769 323.084L50.2485 320.255L50.2517 320.252L43.8131 313.814L43.8175 313.814L0 269.997V264.34L55.9104 320.25C65.0657 329.406 65.0657 344.25 55.9104 353.405C46.755 362.56 31.9113 362.56 22.756 353.405Z" fill="#F3EEFF"/>
<path fill-rule="evenodd" clip-rule="evenodd" d="M128.629 242.989C128.629 255.956 118.118 266.467 105.152 266.467C92.1857 266.467 81.6746 255.956 81.6746 242.989C81.6746 230.023 92.1857 219.512 105.152 219.512C118.118 219.512 128.629 230.023 128.629 242.989ZM124.629 242.989C124.629 253.746 115.909 262.467 105.152 262.467C94.3949 262.467 85.6746 253.746 85.6746 242.989C85.6746 232.232 94.3949 223.512 105.152 223.512C115.909 223.512 124.629 232.232 124.629 242.989Z" fill="#F3EEFF"/>
<path fill-rule="evenodd" clip-rule="evenodd" d="M447.508 55.5642C447.508 68.5304 436.997 79.0415 424.03 79.0415C411.064 79.0415 400.553 68.5304 400.553 55.5642C400.553 42.598 411.064 32.0869 424.03 32.0869C436.997 32.0869 447.508 42.598 447.508 55.5642ZM443.508 55.5642C443.508 66.3212 434.787 75.0415 424.03 75.0415C413.273 75.0415 404.553 66.3212 404.553 55.5642C404.553 44.8072 413.273 36.0869 424.03 36.0869C434.787 36.0869 443.508 44.8072 443.508 55.5642Z" fill="#F3EEFF"/>
</svg>
