<svg width="3417" height="548" viewBox="0 0 3417 548" fill="none" xmlns="http://www.w3.org/2000/svg">
<path fill-rule="evenodd" clip-rule="evenodd" d="M3145.73 2.42058C3130.04 -2.37608 3114.69 0.201465 3107.17 7.98452C3074.83 3.02935 3048.88 9.01747 3042.66 25.1419C3036.07 42.2088 3053.49 65.7102 3083.83 84.3069L2859.93 404.011C2859.49 404.566 2859.08 405.153 2858.7 405.767L2858.57 405.955L2858.61 405.915C2858.01 406.921 2857.5 407.999 2857.09 409.136C2852.87 414.284 2849.31 419.784 2846.49 425.566C2787.01 430.239 2731.04 437.732 2680.06 447.571C2645.85 456.59 2602.14 462 2554.5 462C2532.95 462 2512.21 460.893 2492.78 458.846L2502.27 445.881C2502.43 445.658 2502.54 445.415 2502.6 445.164C2502.72 444.834 2502.74 444.47 2502.66 444.104L2500.98 436.32C2502.95 435.933 2504.57 434.377 2504.94 432.284L2513.31 384.993C2515.63 387.963 2517.03 392.409 2516.88 397.336C2516.83 398.863 2516.64 400.335 2516.32 401.724L2513.8 401.076C2513.15 400.909 2512.52 401.421 2512.55 402.093L2512.89 409.254C2512.94 410.238 2514.23 410.568 2514.75 409.729L2518.49 403.615C2518.84 403.042 2518.54 402.291 2517.89 402.124L2517.1 401.921C2517.53 400.57 2517.85 399.117 2518.04 397.593C2518.8 391.258 2516.94 385.546 2513.67 382.969L2514.76 376.807C2515.25 374.088 2513.43 371.494 2510.71 371.012L2418.31 354.647C2415.87 354.214 2413.53 355.63 2412.73 357.89L2389.68 384.425L2389.67 384.439L2389.66 384.453C2389.65 384.463 2389.64 384.472 2389.64 384.482L2389.63 384.49L2389.62 384.502L2389.61 384.519L2389.6 384.527C2389.6 384.533 2389.6 384.539 2389.59 384.545L2389.58 384.56C2389.57 384.577 2389.56 384.595 2389.55 384.613C2389.55 384.626 2389.54 384.639 2389.53 384.652L2389.53 384.666L2389.52 384.677L2389.52 384.686L2384.91 389.812L2368.89 386.76C2366.93 386.386 2365.27 387.965 2365.33 389.787L2354.7 393.259C2351.84 394.191 2351.98 398.279 2354.89 399.018L2364.57 401.475L2362.09 434.803C2362.03 435.502 2362.21 436.125 2362.54 436.633C2362.56 436.713 2362.59 436.792 2362.62 436.87L2362.61 436.868C2361.18 436.541 2359.74 436.209 2358.3 435.87L2183.44 410.64C2145.59 406.773 2106.35 403.459 2065.94 400.744L2065.94 400.755L2040.86 399.134L2040.85 399.144C2021.75 397.992 2002.41 396.973 1982.83 396.091L1982.87 396.016L1978.43 395.846L1978.41 395.895L1971.52 395.598L1971.53 395.583L1937 394.266L1936.99 394.285L1934.67 394.201L1935.44 394.242C1890.76 392.765 1845.03 392 1798.5 392C1778.16 392 1757.98 392.146 1737.97 392.434C1724.34 392.147 1710.51 392 1696.5 392C1646.08 392 1597.87 393.906 1553.54 397.381C1493.33 399.213 1423.29 405.299 1348.96 415.865C1316.74 420.446 1285.53 425.61 1255.76 431.215L1255.66 431.231L1255.6 431.245C1199.38 441.834 1148.29 453.992 1105.21 466.752C1052.22 478.873 987.446 486 917.5 486C870.526 486 825.882 482.786 785.575 477.003L706.268 468.117C666.131 465.422 624.374 464 581.5 464C465.933 464 358.478 474.335 269 492.07V491.764C231.779 498.7 197.998 507.835 169.748 518.247C169.653 518.24 169.559 518.233 169.464 518.226C169.137 518.391 168.806 518.556 168.473 518.719C159.908 521.906 151.861 525.21 144.391 528.606C113.481 540.466 67.2111 548 15.5 548C10.7074 548 5.96155 547.935 1.27026 547.808L0.849121 548H15.5H109.54H234.274H3417V476.429C3328.42 448.008 3211.78 428.406 3081.34 422.147L3083.71 409.109C3084.14 409.121 3084.57 409.133 3085 409.145C3085.41 409.157 3085.82 409.169 3086.22 409.181C3086.64 409.193 3087.06 409.206 3087.47 409.218C3100.14 409.607 3112.6 410.186 3124.78 410.94C3111.94 408.884 3098.3 407.482 3084.12 406.848L3138.54 107.291C3178.56 117.551 3212.98 112.579 3220.27 93.6753C3227.16 75.8307 3207.8 50.9517 3174.87 31.9996C3175.07 20.2902 3163.1 7.72899 3145.73 2.42058ZM2477.9 457.061C2480.83 457.456 2483.79 457.829 2486.79 458.18L2492.01 444.536L2490.12 435.828L2490.01 435.849L2489.89 435.874L2489.81 435.888L2489.73 435.904L2489.68 435.914L2489.6 435.929L2489.52 435.942C2489.46 435.954 2489.4 435.966 2489.33 435.977C2489.25 435.992 2489.16 436.007 2489.08 436.022L2488.11 442.792C2487.98 443.673 2487.52 444.354 2486.91 444.794L2486.89 444.843L2486.87 444.862L2486.86 444.894L2486.83 444.929L2486.81 444.96L2486.8 444.975L2486.8 444.982L2486.79 444.996L2486.78 445.011L2477.9 457.061ZM2438.49 449.939C2448.81 452.338 2459.86 454.425 2471.53 456.158L2476.91 441.974L2476.48 436.682C2474.52 436.595 2472.51 436.431 2470.45 436.183C2470.13 436.145 2469.82 436.105 2469.5 436.064C2468.44 437.161 2466.98 438.084 2465.23 438.787C2465.15 439.251 2465.06 439.745 2464.93 440.255C2464.35 442.671 2463.44 444.525 2462.91 444.396C2462.37 444.267 2462.41 442.203 2462.99 439.787L2463.01 439.712L2463.02 439.64L2463.06 439.508C2461.21 440.004 2459.15 440.288 2456.96 440.325L2456.93 440.442L2456.93 440.486L2456.91 440.547L2456.9 440.632C2456.88 440.694 2456.87 440.757 2456.86 440.82C2456.84 440.898 2456.82 440.977 2456.8 441.056C2456.79 441.132 2456.77 441.208 2456.75 441.285C2456.17 443.701 2455.26 445.555 2454.72 445.426C2454.19 445.296 2454.22 443.233 2454.81 440.817C2454.82 440.743 2454.84 440.67 2454.86 440.598C2454.89 440.493 2454.91 440.39 2454.94 440.289C2454.25 440.253 2453.56 440.194 2452.85 440.109C2451.52 439.949 2450.24 439.707 2449.01 439.395C2448.98 439.561 2448.94 439.73 2448.91 439.902C2448.88 440.043 2448.84 440.185 2448.81 440.329C2448.23 442.745 2447.32 444.599 2446.78 444.47C2446.24 444.341 2446.28 442.277 2446.86 439.861C2446.95 439.51 2447.04 439.171 2447.14 438.849C2444.94 438.124 2442.99 437.167 2441.38 436.053C2441.31 436.477 2441.22 436.926 2441.1 437.388C2440.52 439.804 2439.62 441.658 2439.08 441.528C2438.54 441.399 2438.58 439.335 2439.16 436.919C2439.35 436.142 2439.57 435.423 2439.8 434.809C2438.08 433.263 2436.98 431.507 2436.7 429.694C2432.65 428.419 2429.22 426.926 2426.66 425.33L2426.19 429.323C2426.12 429.887 2425.84 430.348 2425.44 430.658L2414.46 446.155C2415.29 446.318 2416.11 446.482 2416.93 446.645L2417.66 446.792L2418.31 446.922L2418.7 447C2421.17 447.315 2423.61 447.607 2426.02 447.874C2430.11 448.598 2434.27 449.286 2438.49 449.939ZM2416.24 429.73L2410.01 445.282C2407.88 444.867 2405.71 444.451 2403.52 444.035L2414.25 429.968C2414.41 429.752 2414.52 429.514 2414.59 429.269C2414.74 428.959 2414.81 428.607 2414.78 428.24L2414.45 424.238L2416.24 429.73ZM2402.96 427.309L2397.35 442.876L2396.39 442.699C2392.47 441.973 2388.6 441.275 2384.82 440.606C2384.84 440.582 2384.85 440.558 2384.87 440.534C2384.89 440.508 2384.91 440.482 2384.93 440.455C2384.95 440.421 2384.98 440.386 2385 440.35L2385.02 440.329L2385.02 440.318C2385.03 440.305 2385.04 440.292 2385.05 440.279L2402.43 420.817L2402.96 427.309ZM2841.52 438.719L2841.52 438.728C2820.21 441.249 2798.46 444.071 2776.38 447.196C2738.84 452.512 2702.46 458.408 2667.72 464.731C2696.28 457.344 2727.59 451.075 2760.62 446.399C2788.68 442.425 2815.89 439.898 2841.52 438.719ZM1234.96 446.629C1360.95 425.386 1508.56 410.105 1666.68 403.636C1720.12 401.45 1772.45 400.365 1823.23 400.307C1783.04 399.252 1741.15 398.937 1698.11 399.444C1502.72 401.745 1331.45 420.425 1234.96 446.629ZM627 472.221C655.382 473.502 684.98 475.429 715.375 478.035C733.283 479.571 750.879 481.291 768.078 483.176C747.74 479.414 725.922 476.451 703.161 474.5C676.423 472.207 650.731 471.51 627 472.221ZM296.35 491.949L296.836 491.877C292.694 492.914 288.615 493.993 284.603 495.11C309.512 490.614 335.469 486.53 362.206 482.952C363.427 482.798 364.651 482.645 365.876 482.492C366.772 482.38 367.669 482.268 368.568 482.157C369.391 482.054 370.216 481.952 371.042 481.851C386.225 479.979 401.171 478.244 415.808 476.648C415.306 476.681 414.803 476.714 414.3 476.747C417.455 476.418 420.599 476.099 423.733 475.789C403.522 475.932 382.193 477.325 360.246 480.09C338.131 482.875 316.969 486.855 297.225 491.78L296.35 491.949ZM912.111 498C894.095 498 876.861 496.584 861 494C880.694 495.16 901.292 495.776 922.495 495.776C933.272 495.776 943.894 495.616 954.32 495.308C940.984 497.057 926.808 498 912.111 498ZM2491.09 470.985C2466.03 468.728 2442.17 465.3 2420.32 461C2447.62 464.506 2476.22 467.637 2505.71 470.293C2520.7 471.644 2535.49 472.832 2550.01 473.861C2531.32 473.758 2511.53 472.826 2491.09 470.985ZM1474 394.331C1565.96 387.746 1671.58 384 1783.92 384C1790.71 384 1797.48 384.014 1804.23 384.041C1769.43 382.059 1732.78 381 1694.92 381C1613.53 381 1537.69 385.895 1474 394.331ZM957 477C947.648 477 938.452 476.794 929.453 476.395C1002.61 474.103 1067.02 465.447 1111.93 452.917C1076.52 467.545 1020.3 477 957 477ZM2528 453.478C2537 453.877 2546.19 454.083 2555.55 454.083C2618.85 454.083 2675.07 444.628 2710.48 430C2665.57 442.53 2601.15 451.186 2528 453.478ZM587.05 459C549.136 459 512.281 459.737 477 461.127C506.311 457.817 538.198 456 571.55 456C599.943 456 627.274 457.316 652.857 459.75C631.359 459.256 609.389 459 587.05 459ZM3110.09 416.082C3145.27 419.145 3181.92 423.054 3219.54 427.828C3241.7 430.64 3263.46 433.66 3284.72 436.858C3259.65 431.222 3232.7 426.475 3204.54 422.9C3171.45 418.701 3139.59 416.488 3110.09 416.082Z" fill="black"/>
</svg>
